<svg width="110px" height="96px" viewBox="0 0 110 96" fill="none" xmlns="http://www.w3.org/2000/svg">
<path d="M61.9854 80.0028H2.72903C2.00525 80.0028 1.31111 79.7229 0.799315 79.2245C0.287522 78.7262 0 78.0503 0 77.3455V2.6573C0 1.95254 0.287522 1.27665 0.799315 0.778305C1.31111 0.279964 2.00525 0 2.72903 0H107.271C107.995 0 108.689 0.279964 109.201 0.778305C109.712 1.27665 110 1.95254 110 2.6573C110 3.36206 109.712 4.03795 109.201 4.5363C108.689 5.03464 107.995 5.3146 107.271 5.3146H5.45806V74.6879H61.9854C62.7092 74.6879 63.4033 74.9678 63.9151 75.4662C64.4269 75.9645 64.7144 76.6404 64.7144 77.3452C64.7144 78.0499 64.4269 78.7258 63.9151 79.2242C63.4033 79.7225 62.7092 80.0025 61.9854 80.0025V80.0028ZM107.27 80.0028H92.8053C92.0815 80.0028 91.3874 79.7229 90.8756 79.2245C90.3638 78.7262 90.0762 78.0503 90.0762 77.3455C90.0762 76.6408 90.3638 75.9649 90.8756 75.4665C91.3874 74.9682 92.0815 74.6882 92.8053 74.6882H104.54V13.5079C104.54 12.8032 104.828 12.1273 105.339 11.6289C105.851 11.1306 106.545 10.8506 107.269 10.8506C107.993 10.8506 108.687 11.1306 109.199 11.6289C109.711 12.1273 109.998 12.8032 109.998 13.5079V77.3455C109.998 78.0501 109.711 78.7259 109.199 79.2242C108.688 79.7225 107.994 80.0026 107.27 80.0028Z" fill="#528AC8"/>
<path d="M61.4854 79.5025V79.5028H2.72903C2.13362 79.5028 1.56519 79.2724 1.14813 78.8663C0.731519 78.4606 0.5 77.9133 0.5 77.3455V2.6573C0.5 2.08951 0.731518 1.5422 1.14813 1.13653C1.56519 0.730433 2.13362 0.5 2.72903 0.5H107.271C107.866 0.5 108.435 0.730434 108.852 1.13653C109.268 1.5422 109.5 2.08951 109.5 2.6573C109.5 3.22509 109.268 3.7724 108.852 4.17806C108.435 4.58417 107.866 4.8146 107.271 4.8146H5.45806H4.95806V5.3146V74.6879V75.1879H5.45806H61.9854C62.5808 75.1879 63.1493 75.4183 63.5663 75.8244C63.9829 76.2301 64.2144 76.7774 64.2144 77.3452C64.2144 77.9129 63.9829 78.4603 63.5663 78.8659C63.1493 79.272 62.5808 79.5025 61.9854 79.5025H61.4854ZM104.54 75.1882H105.04V74.6882V13.5079C105.04 12.9402 105.272 12.3928 105.688 11.9872C106.105 11.5811 106.674 11.3506 107.269 11.3506C107.865 11.3506 108.433 11.5811 108.85 11.9872C109.267 12.3928 109.498 12.9402 109.498 13.5079V77.3455C109.498 77.9132 109.267 78.4604 108.85 78.866C108.433 79.2721 107.865 79.5026 107.27 79.5028C107.27 79.5028 107.27 79.5028 107.27 79.5028H92.8053C92.2099 79.5028 91.6414 79.2724 91.2244 78.8663C90.8078 78.4606 90.5762 77.9133 90.5762 77.3455C90.5762 76.7777 90.8078 76.2304 91.2244 75.8247C91.6414 75.4186 92.2099 75.1882 92.8053 75.1882H104.54Z" stroke="url(#paint0_linear)" stroke-opacity="0.75"/>
<path d="M71.1868 21.8094H38.8114C38.0876 21.8094 37.3935 21.5294 36.8817 21.031C36.3699 20.5327 36.0824 19.8568 36.0824 19.1521C36.0824 18.4473 36.3699 17.7714 36.8817 17.2731C37.3935 16.7747 38.0876 16.4948 38.8114 16.4948H71.1868C71.9106 16.4948 72.6047 16.7747 73.1165 17.2731C73.6283 17.7714 73.9158 18.4473 73.9158 19.1521C73.9158 19.8568 73.6283 20.5327 73.1165 21.031C72.6047 21.5294 71.9106 21.8094 71.1868 21.8094Z" fill="#528AC8"/>
<path d="M72.7677 20.6728L73.1165 21.031L72.7677 20.6728C72.3507 21.0789 71.7822 21.3094 71.1868 21.3094H38.8114C38.216 21.3094 37.6476 21.0789 37.2305 20.6728C36.8139 20.2672 36.5824 19.7198 36.5824 19.1521C36.5824 18.5843 36.8139 18.037 37.2305 17.6313C37.6476 17.2252 38.216 16.9948 38.8114 16.9948H71.1868C71.7822 16.9948 72.3507 17.2252 72.7677 17.6313L73.1135 17.2762L72.7677 17.6313C73.1843 18.0369 73.4158 18.5843 73.4158 19.1521C73.4158 19.7198 73.1843 20.2672 72.7677 20.6728Z" stroke="url(#paint1_linear)" stroke-opacity="0.75"/>
<path d="M72.8977 95.1923C72.5389 95.1923 72.1836 95.1234 71.8522 94.9895C71.5207 94.8557 71.2196 94.6595 70.9662 94.4122C70.7127 94.1649 70.5118 93.8713 70.3749 93.5484C70.2381 93.2254 70.168 92.8793 70.1687 92.5299L70.2149 68.4515C70.2163 67.7477 70.5045 67.0731 71.0161 66.5759C71.5277 66.0786 72.2211 65.7994 72.944 65.7994H72.9492C73.3076 65.8 73.6624 65.8694 73.9932 66.0036C74.324 66.1378 74.6245 66.3341 74.8774 66.5813C75.1303 66.8285 75.3308 67.1219 75.4673 67.4445C75.6038 67.7672 75.6737 68.1129 75.673 68.4618L75.6357 88.0195L81.5273 84.8414C81.8412 84.6646 82.1882 84.5505 82.548 84.5058C82.9077 84.4611 83.273 84.4866 83.6225 84.5809C83.972 84.6752 84.2986 84.8364 84.5834 85.055C84.8682 85.2737 85.1054 85.5454 85.2811 85.8544C85.4567 86.1633 85.5674 86.5032 85.6067 86.8542C85.6459 87.2053 85.6129 87.5605 85.5095 87.8989C85.4062 88.2374 85.2346 88.5525 85.0047 88.8256C84.7749 89.0988 84.4915 89.3246 84.171 89.4899L74.2191 94.8591C73.8149 95.0777 73.3601 95.1924 72.8977 95.1923ZM92.8022 95.1923C92.0784 95.1923 91.3843 94.9123 90.8725 94.414C90.3607 93.9157 90.0732 93.2398 90.0732 92.535V68.4567C90.0732 67.7519 90.3607 67.076 90.8725 66.5777C91.3843 66.0793 92.0784 65.7994 92.8022 65.7994C93.526 65.7994 94.2201 66.0793 94.7319 66.5777C95.2437 67.076 95.5312 67.7519 95.5312 68.4567V92.535C95.5312 93.2398 95.2437 93.9157 94.7319 94.414C94.2201 94.9123 93.526 95.1923 92.8022 95.1923Z" fill="#FFCF4A"/>
<path d="M72.8978 94.6923H72.8977C72.6028 94.6923 72.3111 94.6357 72.0394 94.5259C71.7677 94.4162 71.5218 94.2557 71.3153 94.0543C71.1089 93.8529 70.946 93.6146 70.8353 93.3533C70.7246 93.0921 70.6681 92.8126 70.6687 92.5309L70.6687 92.5308L70.7149 68.4525C70.7149 68.4525 70.7149 68.4525 70.7149 68.4525C70.7161 67.8854 70.9481 67.3392 71.3646 66.9344C71.7815 66.5292 72.3493 66.2994 72.944 66.2994H72.9487C73.2431 66.3 73.5342 66.357 73.8053 66.467C74.0765 66.5769 74.3219 66.7375 74.5279 66.9389C74.7339 67.1402 74.8964 67.3783 75.0068 67.6393C75.1172 67.9003 75.1735 68.1794 75.173 68.4608V68.4609L75.1357 88.0186L75.1341 88.8582L75.8731 88.4596L81.7647 85.2815L81.7647 85.2815L81.7727 85.2771C82.0295 85.1324 82.3141 85.0387 82.6096 85.002C82.9052 84.9652 83.2053 84.9862 83.4922 85.0636C83.7791 85.141 84.0465 85.2732 84.2789 85.4516C84.5113 85.6301 84.7041 85.8512 84.8464 86.1015C84.9888 86.3518 85.0781 86.6266 85.1098 86.9098C85.1414 87.1929 85.1148 87.4795 85.0313 87.7529C84.9478 88.0264 84.8089 88.2817 84.6221 88.5037C84.4353 88.7258 84.2042 88.9102 83.9418 89.0455L83.9418 89.0455L83.9336 89.0499L73.9817 94.419L73.9813 94.4193C73.6506 94.5981 73.2777 94.6924 72.8978 94.6923ZM92.8022 94.6923C92.2068 94.6923 91.6384 94.4619 91.2213 94.0558C90.8047 93.6501 90.5732 93.1028 90.5732 92.535V68.4567C90.5732 67.8889 90.8047 67.3416 91.2213 66.9359C91.6384 66.5298 92.2068 66.2994 92.8022 66.2994C93.3976 66.2994 93.966 66.5298 94.3831 66.9359C94.7997 67.3416 95.0312 67.8889 95.0312 68.4567V92.535C95.0312 93.1028 94.7997 93.6501 94.3831 94.0558C93.966 94.4619 93.3976 94.6923 92.8022 94.6923Z" stroke="url(#paint2_linear)" stroke-opacity="0.75"/>
<path d="M92.1094 33.5479H17.8888C17.1651 33.5479 16.4709 33.2679 15.9591 32.7696C15.4473 32.2713 15.1598 31.5954 15.1598 30.8906C15.1598 30.1858 15.4473 29.5099 15.9591 29.0116C16.4709 28.5133 17.1651 28.2333 17.8888 28.2333H92.1094C92.8332 28.2333 93.5273 28.5133 94.0391 29.0116C94.5509 29.5099 94.8384 30.1858 94.8384 30.8906C94.8384 31.5954 94.5509 32.2713 94.0391 32.7696C93.5273 33.2679 92.8332 33.5479 92.1094 33.5479ZM61.1804 45.2875H17.8888C17.1651 45.2875 16.4709 45.0075 15.9591 44.5092C15.4473 44.0109 15.1598 43.335 15.1598 42.6302C15.1598 41.9254 15.4473 41.2495 15.9591 40.7512C16.4709 40.2529 17.1651 39.9729 17.8888 39.9729H61.1804C61.9042 39.9729 62.5983 40.2529 63.1101 40.7512C63.6219 41.2495 63.9094 41.9254 63.9094 42.6302C63.9094 43.335 63.6219 44.0109 63.1101 44.5092C62.5983 45.0075 61.9042 45.2875 61.1804 45.2875ZM57.5417 57.0264H17.8888C17.1651 57.0264 16.4709 56.7464 15.9591 56.2481C15.4473 55.7498 15.1598 55.0739 15.1598 54.3691C15.1598 53.6643 15.4473 52.9884 15.9591 52.4901C16.4709 51.9918 17.1651 51.7118 17.8888 51.7118H57.5417C58.2655 51.7118 58.9596 51.9918 59.4714 52.4901C59.9832 52.9884 60.2707 53.6643 60.2707 54.3691C60.2707 55.0739 59.9832 55.7498 59.4714 56.2481C58.9596 56.7464 58.2655 57.0264 57.5417 57.0264Z" fill="#528AC8"/>
<path d="M92.1094 33.0479H17.8888C17.2934 33.0479 16.725 32.8175 16.3079 32.4114C15.8913 32.0057 15.6598 31.4584 15.6598 30.8906C15.6598 30.3228 15.8913 29.7755 16.3079 29.3698C16.725 28.9637 17.2934 28.7333 17.8888 28.7333H92.1094C92.7048 28.7333 93.2733 28.9637 93.6903 29.3698C94.1069 29.7755 94.3384 30.3228 94.3384 30.8906C94.3384 31.4584 94.1069 32.0057 93.6903 32.4114C93.2733 32.8175 92.7048 33.0479 92.1094 33.0479ZM61.1804 44.7875H17.8888C17.2934 44.7875 16.725 44.5571 16.3079 44.151C15.8913 43.7453 15.6598 43.198 15.6598 42.6302C15.6598 42.0624 15.8913 41.5151 16.3079 41.1094C16.725 40.7033 17.2934 40.4729 17.8888 40.4729H61.1804C61.7758 40.4729 62.3442 40.7033 62.7613 41.1094C63.1779 41.5151 63.4094 42.0624 63.4094 42.6302C63.4094 43.198 63.1779 43.7453 62.7613 44.151C62.3442 44.5571 61.7758 44.7875 61.1804 44.7875ZM57.5417 56.5264H17.8888C17.2934 56.5264 16.725 56.296 16.3079 55.8899C15.8913 55.4842 15.6598 54.9369 15.6598 54.3691C15.6598 53.8013 15.8913 53.254 16.3079 52.8483C16.725 52.4422 17.2934 52.2118 17.8888 52.2118H57.5417C58.1371 52.2118 58.7055 52.4422 59.1226 52.8483C59.5392 53.254 59.7707 53.8013 59.7707 54.3691C59.7707 54.9369 59.5392 55.4842 59.1226 55.8899C58.7055 56.296 58.1371 56.5264 57.5417 56.5264Z" stroke="url(#paint3_linear)" stroke-opacity="0.75"/>
<path d="M82.849 74.9625C82.1252 74.9625 81.4311 74.6825 80.9193 74.1842C80.4075 73.6858 80.12 73.0099 80.12 72.3052C80.12 71.6004 80.4075 70.9245 80.9193 70.4262C81.4311 69.9278 82.1252 69.6479 82.849 69.6479C85.1556 69.6481 87.4105 68.9824 89.3285 67.7348C91.2465 66.4872 92.7415 64.7138 93.6244 62.6389C94.5073 60.5639 94.7385 58.2807 94.2886 56.0778C93.8388 53.875 92.7282 51.8515 91.0973 50.2632C89.4664 48.675 87.3884 47.5934 85.1262 47.1551C82.8639 46.7168 80.519 46.9416 78.3879 47.801C76.2569 48.6605 74.4354 50.1159 73.1539 51.9834C71.8724 53.8508 71.1884 56.0463 71.1884 58.2923C71.1819 59.8344 71.5011 61.3613 72.1262 62.7782C72.7512 64.1952 73.6688 65.4718 74.8219 66.5289C75.0907 66.7668 75.3081 67.0546 75.4612 67.3754C75.6143 67.6962 75.7001 68.0436 75.7136 68.3971C75.727 68.7506 75.6678 69.1032 75.5395 69.4342C75.4111 69.7651 75.2162 70.0678 74.9661 70.3244C74.7161 70.581 74.4159 70.7865 74.0832 70.9286C73.7505 71.0708 73.3921 71.1469 73.0288 71.1524C72.6655 71.1579 72.3048 71.0927 71.9677 70.9606C71.6307 70.8286 71.3241 70.6323 71.066 70.3834C69.3728 68.8319 68.0254 66.9579 67.1075 64.8779C66.1896 62.7978 65.7209 60.5562 65.7304 58.2923C65.7304 54.9952 66.7345 51.7722 68.6157 49.0307C70.497 46.2893 73.1709 44.1527 76.2992 42.891C79.4276 41.6293 82.87 41.2993 86.191 41.9426C89.512 42.5859 92.5625 44.1738 94.9568 46.5053C97.351 48.8368 98.9814 51.8072 99.6418 55.041C100.302 58.2748 99.963 61.6266 98.667 64.6727C97.371 67.7187 95.1764 70.3222 92.3609 72.1537C89.5453 73.9853 86.2351 74.9627 82.849 74.9625Z" fill="#FFCF4A"/>
<path d="M74.4839 66.8975L74.484 66.8975C73.2805 65.7941 72.3219 64.4609 71.6687 62.98C71.0156 61.4995 70.6818 59.9035 70.6884 58.2912C70.6884 58.2909 70.6884 58.2906 70.6884 58.2902L71.1884 58.2923L74.4839 66.8975ZM74.4839 66.8975L74.4905 66.9033M74.4839 66.8975L74.4905 66.9033M74.4905 66.9033C74.7097 67.0973 74.886 67.3311 75.01 67.5908C75.1339 67.8504 75.2031 68.131 75.2139 68.4161C75.2248 68.7012 75.1771 68.9858 75.0733 69.2534C74.9695 69.521 74.8116 69.7666 74.608 69.9755C74.4045 70.1844 74.1594 70.3524 73.8867 70.4689C73.6141 70.5854 73.3198 70.6479 73.0212 70.6524C72.7227 70.657 72.4265 70.6034 72.1501 70.4951C71.8738 70.3868 71.6233 70.2263 71.4131 70.0235L71.4132 70.0234M74.4905 66.9033L71.4132 70.0234M71.4132 70.0234L71.4038 70.0148M71.4132 70.0234L71.4038 70.0148M71.4038 70.0148C69.7611 68.5095 68.4546 66.6921 67.565 64.676C66.6753 62.6599 66.2212 60.4878 66.2304 58.2944V58.2923M71.4038 70.0148L66.2304 58.2923M66.2304 58.2923C66.2304 55.0971 67.2034 51.9725 69.028 49.3136C70.8527 46.6546 73.4477 44.5802 76.4862 43.3547C79.5249 42.1292 82.8693 41.8084 86.0959 42.4335C89.3225 43.0585 92.2844 44.6009 94.6079 46.8635C96.9313 49.1259 98.5119 52.0068 99.1519 55.1411C99.792 58.2752 99.4634 61.5239 98.2069 64.4769C96.9504 67.4301 94.8218 69.9564 92.0882 71.7346C89.3545 73.5129 86.1392 74.4627 82.8491 74.4625C82.2536 74.4625 81.6852 74.232 81.2681 73.8259M66.2304 58.2923L81.2681 73.8259M81.2681 73.8259C80.8515 73.4203 80.62 72.8729 80.62 72.3052M81.2681 73.8259L80.62 72.3052M80.62 72.3052C80.62 71.7374 80.8515 71.19 81.2681 70.7844M80.62 72.3052L81.2681 70.7844M81.2681 70.7844C81.6852 70.3783 82.2536 70.1479 82.849 70.1479L81.2681 70.7844Z" stroke="url(#paint4_linear)" stroke-opacity="0.75"/>
<defs>
<linearGradient id="paint0_linear" x1="55" y1="0" x2="55" y2="80.0028" gradientUnits="userSpaceOnUse">
<stop stop-color="white"/>
<stop offset="1" stop-color="white" stop-opacity="0"/>
</linearGradient>
<linearGradient id="paint1_linear" x1="54.9991" y1="16.4948" x2="54.9991" y2="21.8094" gradientUnits="userSpaceOnUse">
<stop stop-color="white"/>
<stop offset="1" stop-color="white" stop-opacity="0"/>
</linearGradient>
<linearGradient id="paint2_linear" x1="82.85" y1="65.7994" x2="82.85" y2="95.1923" gradientUnits="userSpaceOnUse">
<stop stop-color="white"/>
<stop offset="1" stop-color="white" stop-opacity="0"/>
</linearGradient>
<linearGradient id="paint3_linear" x1="54.9991" y1="28.2333" x2="54.9991" y2="57.0264" gradientUnits="userSpaceOnUse">
<stop stop-color="white"/>
<stop offset="1" stop-color="white" stop-opacity="0"/>
</linearGradient>
<linearGradient id="paint4_linear" x1="82.8504" y1="41.6222" x2="82.8504" y2="74.9625" gradientUnits="userSpaceOnUse">
<stop stop-color="white"/>
<stop offset="1" stop-color="white" stop-opacity="0"/>
</linearGradient>
</defs>
</svg>
