<svg width="161" height="89" viewBox="0 0 161 89" fill="none" xmlns="http://www.w3.org/2000/svg">
<path d="M59.7105 40.5981H59.7106L59.7105 40.5898C59.6832 38.9486 59.0785 37.3671 57.9985 36.0999C57.1065 35.0531 55.9336 34.2714 54.6167 33.8319C55.2358 33.1549 55.7762 32.4144 56.2278 31.6235C58.0096 32.3495 59.5422 33.5394 60.6495 35.0575C61.838 36.6869 62.482 38.619 62.5 40.6004V50.1884C62.5 50.5288 62.3587 50.8601 62.0995 51.108C61.8395 51.3566 61.4822 51.5 61.1053 51.5H28.8948C28.5178 51.5 28.1605 51.3566 27.9005 51.108C27.6413 50.8601 27.5 50.5288 27.5 50.1884V40.6004C27.5181 38.619 28.162 36.6869 29.3505 35.0575C30.4578 33.5394 31.9904 32.3495 33.7722 31.6235C34.2238 32.4145 34.7642 33.1549 35.3834 33.8319C34.0664 34.2714 32.8935 35.0531 32.0015 36.0999C30.9215 37.3671 30.3168 38.9486 30.2895 40.5898L30.2895 40.5898V40.5981V48.3769V48.8769H30.7895H59.2105H59.7105V48.3769V40.5981Z" fill="#528AC8"/>
<path d="M59.7105 40.5981H59.7106L59.7105 40.5898C59.6832 38.9486 59.0785 37.3671 57.9985 36.0999C57.1065 35.0531 55.9336 34.2714 54.6167 33.8319C55.2358 33.1549 55.7762 32.4144 56.2278 31.6235C58.0096 32.3495 59.5422 33.5394 60.6495 35.0575C61.838 36.6869 62.482 38.619 62.5 40.6004V50.1884C62.5 50.5288 62.3587 50.8601 62.0995 51.108C61.8395 51.3566 61.4822 51.5 61.1053 51.5H28.8948C28.5178 51.5 28.1605 51.3566 27.9005 51.108C27.6413 50.8601 27.5 50.5288 27.5 50.1884V40.6004C27.5181 38.619 28.162 36.6869 29.3505 35.0575C30.4578 33.5394 31.9904 32.3495 33.7722 31.6235C34.2238 32.4145 34.7642 33.1549 35.3834 33.8319C34.0664 34.2714 32.8935 35.0531 32.0015 36.0999C30.9215 37.3671 30.3168 38.9486 30.2895 40.5898L30.2895 40.5898V40.5981V48.3769V48.8769H30.7895H59.2105H59.7105V48.3769V40.5981Z" stroke="#3D6CB4"/>
<path d="M59.7105 40.5981H59.7106L59.7105 40.5898C59.6832 38.9486 59.0785 37.3671 57.9985 36.0999C57.1065 35.0531 55.9336 34.2714 54.6167 33.8319C55.2358 33.1549 55.7762 32.4144 56.2278 31.6235C58.0096 32.3495 59.5422 33.5394 60.6495 35.0575C61.838 36.6869 62.482 38.619 62.5 40.6004V50.1884C62.5 50.5288 62.3587 50.8601 62.0995 51.108C61.8395 51.3566 61.4822 51.5 61.1053 51.5H28.8948C28.5178 51.5 28.1605 51.3566 27.9005 51.108C27.6413 50.8601 27.5 50.5288 27.5 50.1884V40.6004C27.5181 38.619 28.162 36.6869 29.3505 35.0575C30.4578 33.5394 31.9904 32.3495 33.7722 31.6235C34.2238 32.4145 34.7642 33.1549 35.3834 33.8319C34.0664 34.2714 32.8935 35.0531 32.0015 36.0999C30.9215 37.3671 30.3168 38.9486 30.2895 40.5898L30.2895 40.5898V40.5981V48.3769V48.8769H30.7895H59.2105H59.7105V48.3769V40.5981Z" stroke="url(#paint0_linear)"/>
<path d="M39.3621 24.5L39.3621 24.5006C39.3637 25.8886 39.9282 27.2169 40.9281 28.1949C41.9275 29.1726 43.2803 29.7206 44.6891 29.7222H44.6897C45.7409 29.7222 46.7695 29.4173 47.6453 28.8449C48.5212 28.2724 49.2056 27.4576 49.6102 26.5021C50.0148 25.5465 50.1209 24.4943 49.9145 23.4791C49.708 22.464 49.1988 21.533 48.4529 20.8035C47.7071 20.074 46.7583 19.5784 45.727 19.3777C44.6957 19.1771 43.6266 19.2799 42.6545 19.6738C41.6822 20.0677 40.8495 20.7355 40.2628 21.5944C39.676 22.4535 39.3621 23.4647 39.3621 24.5ZM51.502 20.0597C52.4004 21.3749 52.8792 22.9199 52.8793 24.4994C52.8769 26.617 52.0159 28.6494 50.4817 30.1502C48.947 31.6513 46.864 32.4976 44.6891 32.5C43.0671 32.4999 41.4824 32.0293 40.1355 31.149C38.7885 30.2686 37.7404 29.0184 37.1219 27.5578C36.5035 26.0974 36.3418 24.491 36.6569 22.9414C36.9721 21.3916 37.7502 19.9666 38.8948 18.847C40.0394 17.7273 41.4991 16.9636 43.0899 16.6541C44.6807 16.3446 46.3295 16.5036 47.8273 17.1104C49.325 17.7173 50.6034 18.7442 51.502 20.0597ZM75.5862 25H118.069C118.452 25 118.817 25.1489 119.085 25.4107C119.352 25.672 119.5 26.0241 119.5 26.3889C119.5 26.7536 119.352 27.1057 119.085 27.3671C118.817 27.6288 118.452 27.7778 118.069 27.7778H75.5862C75.2032 27.7778 74.838 27.6288 74.5704 27.3671C74.3032 27.1057 74.1552 26.7536 74.1552 26.3889C74.1552 26.0241 74.3032 25.672 74.5704 25.4107C74.838 25.149 75.2032 25 75.5862 25Z" fill="#528AC8"/>
<path d="M39.3621 24.5L39.3621 24.5006C39.3637 25.8886 39.9282 27.2169 40.9281 28.1949C41.9275 29.1726 43.2803 29.7206 44.6891 29.7222H44.6897C45.7409 29.7222 46.7695 29.4173 47.6453 28.8449C48.5212 28.2724 49.2056 27.4576 49.6102 26.5021C50.0148 25.5465 50.1209 24.4943 49.9145 23.4791C49.708 22.464 49.1988 21.533 48.4529 20.8035C47.7071 20.074 46.7583 19.5784 45.727 19.3777C44.6957 19.1771 43.6266 19.2799 42.6545 19.6738C41.6822 20.0677 40.8495 20.7355 40.2628 21.5944C39.676 22.4535 39.3621 23.4647 39.3621 24.5ZM51.502 20.0597C52.4004 21.3749 52.8792 22.9199 52.8793 24.4994C52.8769 26.617 52.0159 28.6494 50.4817 30.1502C48.947 31.6513 46.864 32.4976 44.6891 32.5C43.0671 32.4999 41.4824 32.0293 40.1355 31.149C38.7885 30.2686 37.7404 29.0184 37.1219 27.5578C36.5035 26.0974 36.3418 24.491 36.6569 22.9414C36.9721 21.3916 37.7502 19.9666 38.8948 18.847C40.0394 17.7273 41.4991 16.9636 43.0899 16.6541C44.6807 16.3446 46.3295 16.5036 47.8273 17.1104C49.325 17.7173 50.6034 18.7442 51.502 20.0597ZM75.5862 25H118.069C118.452 25 118.817 25.1489 119.085 25.4107C119.352 25.672 119.5 26.0241 119.5 26.3889C119.5 26.7536 119.352 27.1057 119.085 27.3671C118.817 27.6288 118.452 27.7778 118.069 27.7778H75.5862C75.2032 27.7778 74.838 27.6288 74.5704 27.3671C74.3032 27.1057 74.1552 26.7536 74.1552 26.3889C74.1552 26.0241 74.3032 25.672 74.5704 25.4107C74.838 25.149 75.2032 25 75.5862 25Z" stroke="#3D6CB4"/>
<path d="M39.3621 24.5L39.3621 24.5006C39.3637 25.8886 39.9282 27.2169 40.9281 28.1949C41.9275 29.1726 43.2803 29.7206 44.6891 29.7222H44.6897C45.7409 29.7222 46.7695 29.4173 47.6453 28.8449C48.5212 28.2724 49.2056 27.4576 49.6102 26.5021C50.0148 25.5465 50.1209 24.4943 49.9145 23.4791C49.708 22.464 49.1988 21.533 48.4529 20.8035C47.7071 20.074 46.7583 19.5784 45.727 19.3777C44.6957 19.1771 43.6266 19.2799 42.6545 19.6738C41.6822 20.0677 40.8495 20.7355 40.2628 21.5944C39.676 22.4535 39.3621 23.4647 39.3621 24.5ZM51.502 20.0597C52.4004 21.3749 52.8792 22.9199 52.8793 24.4994C52.8769 26.617 52.0159 28.6494 50.4817 30.1502C48.947 31.6513 46.864 32.4976 44.6891 32.5C43.0671 32.4999 41.4824 32.0293 40.1355 31.149C38.7885 30.2686 37.7404 29.0184 37.1219 27.5578C36.5035 26.0974 36.3418 24.491 36.6569 22.9414C36.9721 21.3916 37.7502 19.9666 38.8948 18.847C40.0394 17.7273 41.4991 16.9636 43.0899 16.6541C44.6807 16.3446 46.3295 16.5036 47.8273 17.1104C49.325 17.7173 50.6034 18.7442 51.502 20.0597ZM75.5862 25H118.069C118.452 25 118.817 25.1489 119.085 25.4107C119.352 25.672 119.5 26.0241 119.5 26.3889C119.5 26.7536 119.352 27.1057 119.085 27.3671C118.817 27.6288 118.452 27.7778 118.069 27.7778H75.5862C75.2032 27.7778 74.838 27.6288 74.5704 27.3671C74.3032 27.1057 74.1552 26.7536 74.1552 26.3889C74.1552 26.0241 74.3032 25.672 74.5704 25.4107C74.838 25.149 75.2032 25 75.5862 25Z" stroke="url(#paint1_linear)"/>
<path d="M119.078 32.9318C119.346 33.2116 119.5 33.5955 119.5 34C119.5 34.4045 119.346 34.7884 119.078 35.0682L119.439 35.4142L119.078 35.0682C118.81 35.3473 118.452 35.5 118.083 35.5H75.9167C75.548 35.5 75.1899 35.3474 74.9224 35.0683C74.6542 34.7884 74.5 34.4045 74.5 34C74.5 33.5955 74.6542 33.2116 74.9224 32.9317C75.1898 32.6526 75.548 32.5 75.9167 32.5H118.083C118.452 32.5 118.81 32.6527 119.078 32.9318L119.438 32.5863L119.078 32.9318Z" fill="#528AC8"/>
<path d="M119.078 32.9318C119.346 33.2116 119.5 33.5955 119.5 34C119.5 34.4045 119.346 34.7884 119.078 35.0682L119.439 35.4142L119.078 35.0682C118.81 35.3473 118.452 35.5 118.083 35.5H75.9167C75.548 35.5 75.1899 35.3474 74.9224 35.0683C74.6542 34.7884 74.5 34.4045 74.5 34C74.5 33.5955 74.6542 33.2116 74.9224 32.9317C75.1898 32.6526 75.548 32.5 75.9167 32.5H118.083C118.452 32.5 118.81 32.6527 119.078 32.9318L119.438 32.5863L119.078 32.9318Z" stroke="#3D6CB4"/>
<path d="M119.078 32.9318C119.346 33.2116 119.5 33.5955 119.5 34C119.5 34.4045 119.346 34.7884 119.078 35.0682L119.439 35.4142L119.078 35.0682C118.81 35.3473 118.452 35.5 118.083 35.5H75.9167C75.548 35.5 75.1899 35.3474 74.9224 35.0683C74.6542 34.7884 74.5 34.4045 74.5 34C74.5 33.5955 74.6542 33.2116 74.9224 32.9317C75.1898 32.6526 75.548 32.5 75.9167 32.5H118.083C118.452 32.5 118.81 32.6527 119.078 32.9318L119.438 32.5863L119.078 32.9318Z" stroke="url(#paint2_linear)"/>
<path d="M26.6661 66.7162H26.6667H104.446C104.846 67.6771 105.316 68.6075 105.853 69.5H26.6672C24.7649 69.4978 22.9425 68.7509 21.5993 67.4251C20.2565 66.0996 19.5022 64.3038 19.5 62.4321V7.56787C19.5022 5.69615 20.2565 3.90039 21.5993 2.57487C22.9424 1.24914 24.7648 0.502223 26.6669 0.5H126.333C128.235 0.502223 130.058 1.24914 131.401 2.57487L131.752 2.21902L131.401 2.57487C132.744 3.90045 133.498 5.69633 133.5 7.56815V39.3248C132.582 38.9028 131.636 38.5454 130.667 38.2553V7.56757V7.56703C130.665 6.4293 130.207 5.33985 129.394 4.53736C128.581 3.73509 127.481 3.28499 126.334 3.28378H126.333L26.6667 3.28378L26.6661 3.28378C25.5195 3.28499 24.4188 3.73509 23.606 4.53736C22.793 5.33985 22.3346 6.4293 22.3333 7.56703V7.56757L22.3333 62.4324L22.3333 62.433C22.3346 63.5707 22.793 64.6601 23.606 65.4626C24.4188 66.2649 25.5195 66.715 26.6661 66.7162Z" fill="#528AC8"/>
<path d="M26.6661 66.7162H26.6667H104.446C104.846 67.6771 105.316 68.6075 105.853 69.5H26.6672C24.7649 69.4978 22.9425 68.7509 21.5993 67.4251C20.2565 66.0996 19.5022 64.3038 19.5 62.4321V7.56787C19.5022 5.69615 20.2565 3.90039 21.5993 2.57487C22.9424 1.24914 24.7648 0.502223 26.6669 0.5H126.333C128.235 0.502223 130.058 1.24914 131.401 2.57487L131.752 2.21902L131.401 2.57487C132.744 3.90045 133.498 5.69633 133.5 7.56815V39.3248C132.582 38.9028 131.636 38.5454 130.667 38.2553V7.56757V7.56703C130.665 6.4293 130.207 5.33985 129.394 4.53736C128.581 3.73509 127.481 3.28499 126.334 3.28378H126.333L26.6667 3.28378L26.6661 3.28378C25.5195 3.28499 24.4188 3.73509 23.606 4.53736C22.793 5.33985 22.3346 6.4293 22.3333 7.56703V7.56757L22.3333 62.4324L22.3333 62.433C22.3346 63.5707 22.793 64.6601 23.606 65.4626C24.4188 66.2649 25.5195 66.715 26.6661 66.7162Z" stroke="#3D6CB4"/>
<path d="M26.6661 66.7162H26.6667H104.446C104.846 67.6771 105.316 68.6075 105.853 69.5H26.6672C24.7649 69.4978 22.9425 68.7509 21.5993 67.4251C20.2565 66.0996 19.5022 64.3038 19.5 62.4321V7.56787C19.5022 5.69615 20.2565 3.90039 21.5993 2.57487C22.9424 1.24914 24.7648 0.502223 26.6669 0.5H126.333C128.235 0.502223 130.058 1.24914 131.401 2.57487L131.752 2.21902L131.401 2.57487C132.744 3.90045 133.498 5.69633 133.5 7.56815V39.3248C132.582 38.9028 131.636 38.5454 130.667 38.2553V7.56757V7.56703C130.665 6.4293 130.207 5.33985 129.394 4.53736C128.581 3.73509 127.481 3.28499 126.334 3.28378H126.333L26.6667 3.28378L26.6661 3.28378C25.5195 3.28499 24.4188 3.73509 23.606 4.53736C22.793 5.33985 22.3346 6.4293 22.3333 7.56703V7.56757L22.3333 62.4324L22.3333 62.433C22.3346 63.5707 22.793 64.6601 23.606 65.4626C24.4188 66.2649 25.5195 66.715 26.6661 66.7162Z" stroke="url(#paint3_linear)"/>
<path d="M74.9124 42.8274C74.6464 42.5698 74.5 42.2239 74.5 41.8667V41.8666C74.5 41.5094 74.6464 41.1635 74.9124 40.9059C75.1789 40.6478 75.5437 40.5 75.9273 40.5C75.9273 40.5 75.9273 40.5 75.9273 40.5H114.157C112.792 41.2733 111.516 42.1894 110.352 43.2333H75.9273C75.9273 43.2333 75.9273 43.2333 75.9273 43.2333C75.5437 43.2333 75.1789 43.0856 74.9124 42.8274ZM124.058 57.7059C124.324 57.4478 124.689 57.3 125.073 57.3C125.456 57.3 125.821 57.4478 126.088 57.7059C126.354 57.9635 126.5 58.3095 126.5 58.6667V66.1333C126.5 66.4905 126.354 66.8365 126.088 67.0941C125.821 67.3523 125.456 67.5 125.073 67.5C124.689 67.5 124.324 67.3523 124.058 67.0941C123.792 66.8365 123.645 66.4905 123.645 66.1333V58.6667C123.645 58.3095 123.792 57.9635 124.058 57.7059Z" fill="#528AC8"/>
<path d="M74.9124 42.8274C74.6464 42.5698 74.5 42.2239 74.5 41.8667V41.8666C74.5 41.5094 74.6464 41.1635 74.9124 40.9059C75.1789 40.6478 75.5437 40.5 75.9273 40.5C75.9273 40.5 75.9273 40.5 75.9273 40.5H114.157C112.792 41.2733 111.516 42.1894 110.352 43.2333H75.9273C75.9273 43.2333 75.9273 43.2333 75.9273 43.2333C75.5437 43.2333 75.1789 43.0856 74.9124 42.8274ZM124.058 57.7059C124.324 57.4478 124.689 57.3 125.073 57.3C125.456 57.3 125.821 57.4478 126.088 57.7059C126.354 57.9635 126.5 58.3095 126.5 58.6667V66.1333C126.5 66.4905 126.354 66.8365 126.088 67.0941C125.821 67.3523 125.456 67.5 125.073 67.5C124.689 67.5 124.324 67.3523 124.058 67.0941C123.792 66.8365 123.645 66.4905 123.645 66.1333V58.6667C123.645 58.3095 123.792 57.9635 124.058 57.7059Z" stroke="#3D6CB4"/>
<path d="M74.9124 42.8274C74.6464 42.5698 74.5 42.2239 74.5 41.8667V41.8666C74.5 41.5094 74.6464 41.1635 74.9124 40.9059C75.1789 40.6478 75.5437 40.5 75.9273 40.5C75.9273 40.5 75.9273 40.5 75.9273 40.5H114.157C112.792 41.2733 111.516 42.1894 110.352 43.2333H75.9273C75.9273 43.2333 75.9273 43.2333 75.9273 43.2333C75.5437 43.2333 75.1789 43.0856 74.9124 42.8274ZM124.058 57.7059C124.324 57.4478 124.689 57.3 125.073 57.3C125.456 57.3 125.821 57.4478 126.088 57.7059C126.354 57.9635 126.5 58.3095 126.5 58.6667V66.1333C126.5 66.4905 126.354 66.8365 126.088 67.0941C125.821 67.3523 125.456 67.5 125.073 67.5C124.689 67.5 124.324 67.3523 124.058 67.0941C123.792 66.8365 123.645 66.4905 123.645 66.1333V58.6667C123.645 58.3095 123.792 57.9635 124.058 57.7059Z" stroke="url(#paint4_linear)"/>
<path d="M126.5 51C126.5 51.7301 125.714 52.5 124.5 52.5C123.286 52.5 122.5 51.7301 122.5 51C122.5 50.2699 123.286 49.5 124.5 49.5C125.714 49.5 126.5 50.2699 126.5 51Z" fill="#528AC8"/>
<path d="M126.5 51C126.5 51.7301 125.714 52.5 124.5 52.5C123.286 52.5 122.5 51.7301 122.5 51C122.5 50.2699 123.286 49.5 124.5 49.5C125.714 49.5 126.5 50.2699 126.5 51Z" stroke="#3D6CB4"/>
<path d="M126.5 51C126.5 51.7301 125.714 52.5 124.5 52.5C123.286 52.5 122.5 51.7301 122.5 51C122.5 50.2699 123.286 49.5 124.5 49.5C125.714 49.5 126.5 50.2699 126.5 51Z" stroke="url(#paint5_linear)"/>
<path d="M3.5 74C3.5 74.8284 2.82843 75.5 2 75.5C1.17157 75.5 0.5 74.8284 0.5 74C0.5 73.1716 1.17157 72.5 2 72.5C2.82843 72.5 3.5 73.1716 3.5 74Z" fill="#528AC8"/>
<path d="M3.5 74C3.5 74.8284 2.82843 75.5 2 75.5C1.17157 75.5 0.5 74.8284 0.5 74C0.5 73.1716 1.17157 72.5 2 72.5C2.82843 72.5 3.5 73.1716 3.5 74Z" stroke="#3D6CB4"/>
<path d="M3.5 74C3.5 74.8284 2.82843 75.5 2 75.5C1.17157 75.5 0.5 74.8284 0.5 74C0.5 73.1716 1.17157 72.5 2 72.5C2.82843 72.5 3.5 73.1716 3.5 74Z" stroke="url(#paint6_linear)"/>
<path d="M6.9359 72.5H9.83974C10.2152 72.5 10.5787 72.6539 10.8494 72.9335C11.1205 73.2137 11.2756 73.597 11.2756 74C11.2756 74.403 11.1205 74.7863 10.8494 75.0665C10.5787 75.3461 10.2152 75.5 9.83974 75.5H6.9359C6.56043 75.5 6.19691 75.3461 5.92628 75.0665C5.65511 74.7863 5.5 74.403 5.5 74C5.5 73.597 5.65511 73.2137 5.92628 72.9335C6.19691 72.6539 6.56043 72.5 6.9359 72.5ZM151.16 72.5H154.064C154.44 72.5 154.803 72.6539 155.074 72.9335C155.345 73.2137 155.5 73.597 155.5 74C155.5 74.403 155.345 74.7863 155.074 75.0665C154.803 75.3461 154.44 75.5 154.064 75.5H151.16C150.785 75.5 150.421 75.3461 150.151 75.0665C149.879 74.7863 149.724 74.403 149.724 74C149.724 73.597 149.879 73.2137 150.151 72.9335C150.421 72.6539 150.785 72.5 151.16 72.5Z" fill="#528AC8"/>
<path d="M6.9359 72.5H9.83974C10.2152 72.5 10.5787 72.6539 10.8494 72.9335C11.1205 73.2137 11.2756 73.597 11.2756 74C11.2756 74.403 11.1205 74.7863 10.8494 75.0665C10.5787 75.3461 10.2152 75.5 9.83974 75.5H6.9359C6.56043 75.5 6.19691 75.3461 5.92628 75.0665C5.65511 74.7863 5.5 74.403 5.5 74C5.5 73.597 5.65511 73.2137 5.92628 72.9335C6.19691 72.6539 6.56043 72.5 6.9359 72.5ZM151.16 72.5H154.064C154.44 72.5 154.803 72.6539 155.074 72.9335C155.345 73.2137 155.5 73.597 155.5 74C155.5 74.403 155.345 74.7863 155.074 75.0665C154.803 75.3461 154.44 75.5 154.064 75.5H151.16C150.785 75.5 150.421 75.3461 150.151 75.0665C149.879 74.7863 149.724 74.403 149.724 74C149.724 73.597 149.879 73.2137 150.151 72.9335C150.421 72.6539 150.785 72.5 151.16 72.5Z" stroke="#3D6CB4"/>
<path d="M6.9359 72.5H9.83974C10.2152 72.5 10.5787 72.6539 10.8494 72.9335C11.1205 73.2137 11.2756 73.597 11.2756 74C11.2756 74.403 11.1205 74.7863 10.8494 75.0665C10.5787 75.3461 10.2152 75.5 9.83974 75.5H6.9359C6.56043 75.5 6.19691 75.3461 5.92628 75.0665C5.65511 74.7863 5.5 74.403 5.5 74C5.5 73.597 5.65511 73.2137 5.92628 72.9335C6.19691 72.6539 6.56043 72.5 6.9359 72.5ZM151.16 72.5H154.064C154.44 72.5 154.803 72.6539 155.074 72.9335C155.345 73.2137 155.5 73.597 155.5 74C155.5 74.403 155.345 74.7863 155.074 75.0665C154.803 75.3461 154.44 75.5 154.064 75.5H151.16C150.785 75.5 150.421 75.3461 150.151 75.0665C149.879 74.7863 149.724 74.403 149.724 74C149.724 73.597 149.879 73.2137 150.151 72.9335C150.421 72.6539 150.785 72.5 151.16 72.5Z" stroke="url(#paint7_linear)"/>
<path d="M160.5 74C160.5 74.8284 159.828 75.5 159 75.5C158.172 75.5 157.5 74.8284 157.5 74C157.5 73.1716 158.172 72.5 159 72.5C159.828 72.5 160.5 73.1716 160.5 74Z" fill="#528AC8"/>
<path d="M160.5 74C160.5 74.8284 159.828 75.5 159 75.5C158.172 75.5 157.5 74.8284 157.5 74C157.5 73.1716 158.172 72.5 159 72.5C159.828 72.5 160.5 73.1716 160.5 74Z" stroke="#3D6CB4"/>
<path d="M160.5 74C160.5 74.8284 159.828 75.5 159 75.5C158.172 75.5 157.5 74.8284 157.5 74C157.5 73.1716 158.172 72.5 159 72.5C159.828 72.5 160.5 73.1716 160.5 74Z" stroke="url(#paint8_linear)"/>
<path d="M104.384 82.0296L104.01 82.3609L104.384 82.0296C104.139 81.7523 104 81.3849 104 81C104 80.6151 104.139 80.2477 104.384 79.9704L104.01 79.6391L104.384 79.9704C104.625 79.6987 104.949 79.5336 105.292 79.5H113.208C113.551 79.5336 113.875 79.6987 114.116 79.9704C114.361 80.2477 114.5 80.6151 114.5 81C114.5 81.3849 114.361 81.7523 114.116 82.0296C113.875 82.3013 113.551 82.4664 113.208 82.5H105.292C104.949 82.4664 104.625 82.3013 104.384 82.0296ZM77.1092 83V82.5H76.6092H61.3333C60.9647 82.5 60.6065 82.3474 60.3391 82.0683C60.0709 81.7884 59.9167 81.4045 59.9167 81C59.9167 80.5955 60.0709 80.2116 60.3391 79.9317C60.6065 79.6526 60.9647 79.5 61.3333 79.5H99.6666C100.035 79.5 100.393 79.6526 100.661 79.9317L101.021 79.5862L100.661 79.9317C100.929 80.2116 101.083 80.5955 101.083 81C101.083 81.4045 100.929 81.7884 100.661 82.0683L101.022 82.4142L100.661 82.0683C100.393 82.3474 100.035 82.5 99.6666 82.5H84.3908H83.8908V83V85V85.5H84.3908H92.9583C93.327 85.5 93.6851 85.6526 93.9526 85.9317C94.2208 86.2116 94.375 86.5955 94.375 87C94.375 87.4045 94.2208 87.7884 93.9526 88.0683C93.6851 88.3474 93.327 88.5 92.9583 88.5H69C68.6313 88.5 68.2732 88.3474 68.0057 88.0683C67.7375 87.7884 67.5833 87.4045 67.5833 87C67.5833 86.5955 67.7375 86.2116 68.0057 85.9317C68.2732 85.6526 68.6313 85.5 69 85.5H76.6092H77.1092V85V83ZM46.8844 79.9704C47.1247 79.6987 47.4486 79.5336 47.7917 79.5H55.7083C56.0514 79.5336 56.3753 79.6987 56.6156 79.9704C56.8609 80.2477 57 80.6151 57 81C57 81.3849 56.8609 81.7523 56.6156 82.0296C56.3753 82.3013 56.0514 82.4664 55.7083 82.5H47.7917C47.4486 82.4664 47.1247 82.3013 46.8844 82.0296C46.6391 81.7523 46.5 81.3849 46.5 81C46.5 80.6151 46.6391 80.2477 46.8844 79.9704Z" fill="#528AC8"/>
<path d="M104.384 82.0296L104.01 82.3609L104.384 82.0296C104.139 81.7523 104 81.3849 104 81C104 80.6151 104.139 80.2477 104.384 79.9704L104.01 79.6391L104.384 79.9704C104.625 79.6987 104.949 79.5336 105.292 79.5H113.208C113.551 79.5336 113.875 79.6987 114.116 79.9704C114.361 80.2477 114.5 80.6151 114.5 81C114.5 81.3849 114.361 81.7523 114.116 82.0296C113.875 82.3013 113.551 82.4664 113.208 82.5H105.292C104.949 82.4664 104.625 82.3013 104.384 82.0296ZM77.1092 83V82.5H76.6092H61.3333C60.9647 82.5 60.6065 82.3474 60.3391 82.0683C60.0709 81.7884 59.9167 81.4045 59.9167 81C59.9167 80.5955 60.0709 80.2116 60.3391 79.9317C60.6065 79.6526 60.9647 79.5 61.3333 79.5H99.6666C100.035 79.5 100.393 79.6526 100.661 79.9317L101.021 79.5862L100.661 79.9317C100.929 80.2116 101.083 80.5955 101.083 81C101.083 81.4045 100.929 81.7884 100.661 82.0683L101.022 82.4142L100.661 82.0683C100.393 82.3474 100.035 82.5 99.6666 82.5H84.3908H83.8908V83V85V85.5H84.3908H92.9583C93.327 85.5 93.6851 85.6526 93.9526 85.9317C94.2208 86.2116 94.375 86.5955 94.375 87C94.375 87.4045 94.2208 87.7884 93.9526 88.0683C93.6851 88.3474 93.327 88.5 92.9583 88.5H69C68.6313 88.5 68.2732 88.3474 68.0057 88.0683C67.7375 87.7884 67.5833 87.4045 67.5833 87C67.5833 86.5955 67.7375 86.2116 68.0057 85.9317C68.2732 85.6526 68.6313 85.5 69 85.5H76.6092H77.1092V85V83ZM46.8844 79.9704C47.1247 79.6987 47.4486 79.5336 47.7917 79.5H55.7083C56.0514 79.5336 56.3753 79.6987 56.6156 79.9704C56.8609 80.2477 57 80.6151 57 81C57 81.3849 56.8609 81.7523 56.6156 82.0296C56.3753 82.3013 56.0514 82.4664 55.7083 82.5H47.7917C47.4486 82.4664 47.1247 82.3013 46.8844 82.0296C46.6391 81.7523 46.5 81.3849 46.5 81C46.5 80.6151 46.6391 80.2477 46.8844 79.9704Z" stroke="#3D6CB4"/>
<path d="M104.384 82.0296L104.01 82.3609L104.384 82.0296C104.139 81.7523 104 81.3849 104 81C104 80.6151 104.139 80.2477 104.384 79.9704L104.01 79.6391L104.384 79.9704C104.625 79.6987 104.949 79.5336 105.292 79.5H113.208C113.551 79.5336 113.875 79.6987 114.116 79.9704C114.361 80.2477 114.5 80.6151 114.5 81C114.5 81.3849 114.361 81.7523 114.116 82.0296C113.875 82.3013 113.551 82.4664 113.208 82.5H105.292C104.949 82.4664 104.625 82.3013 104.384 82.0296ZM77.1092 83V82.5H76.6092H61.3333C60.9647 82.5 60.6065 82.3474 60.3391 82.0683C60.0709 81.7884 59.9167 81.4045 59.9167 81C59.9167 80.5955 60.0709 80.2116 60.3391 79.9317C60.6065 79.6526 60.9647 79.5 61.3333 79.5H99.6666C100.035 79.5 100.393 79.6526 100.661 79.9317L101.021 79.5862L100.661 79.9317C100.929 80.2116 101.083 80.5955 101.083 81C101.083 81.4045 100.929 81.7884 100.661 82.0683L101.022 82.4142L100.661 82.0683C100.393 82.3474 100.035 82.5 99.6666 82.5H84.3908H83.8908V83V85V85.5H84.3908H92.9583C93.327 85.5 93.6851 85.6526 93.9526 85.9317C94.2208 86.2116 94.375 86.5955 94.375 87C94.375 87.4045 94.2208 87.7884 93.9526 88.0683C93.6851 88.3474 93.327 88.5 92.9583 88.5H69C68.6313 88.5 68.2732 88.3474 68.0057 88.0683C67.7375 87.7884 67.5833 87.4045 67.5833 87C67.5833 86.5955 67.7375 86.2116 68.0057 85.9317C68.2732 85.6526 68.6313 85.5 69 85.5H76.6092H77.1092V85V83ZM46.8844 79.9704C47.1247 79.6987 47.4486 79.5336 47.7917 79.5H55.7083C56.0514 79.5336 56.3753 79.6987 56.6156 79.9704C56.8609 80.2477 57 80.6151 57 81C57 81.3849 56.8609 81.7523 56.6156 82.0296C56.3753 82.3013 56.0514 82.4664 55.7083 82.5H47.7917C47.4486 82.4664 47.1247 82.3013 46.8844 82.0296C46.6391 81.7523 46.5 81.3849 46.5 81C46.5 80.6151 46.6391 80.2477 46.8844 79.9704Z" stroke="url(#paint9_linear)"/>
<path d="M144.804 72.5986H144.837L144.869 72.5943C145.073 72.5676 145.279 72.5848 145.475 72.6449C145.671 72.705 145.853 72.8067 146.007 72.9434C146.162 73.0801 146.286 73.2486 146.371 73.4379C146.456 73.6273 146.5 73.8329 146.5 74.0411C146.5 74.2492 146.456 74.4548 146.371 74.6442C146.286 74.8335 146.162 75.0021 146.007 75.1387C145.853 75.2754 145.671 75.3771 145.475 75.4372C145.279 75.4973 145.073 75.5145 144.869 75.4878L144.837 75.4835H144.804H16.1958H16.163L16.1305 75.4878C15.9274 75.5145 15.7209 75.4973 15.5248 75.4372C15.3287 75.3771 15.1473 75.2754 14.9928 75.1387C14.8383 75.0021 14.7142 74.8335 14.6292 74.6442C14.5441 74.4548 14.5 74.2492 14.5 74.0411C14.5 73.8329 14.5441 73.6273 14.6292 73.4379L14.1731 73.233L14.6292 73.4379C14.7142 73.2486 14.8383 73.0801 14.9928 72.9434C15.1473 72.8067 15.3287 72.705 15.5248 72.6449C15.7209 72.5848 15.9274 72.5676 16.1305 72.5943L16.163 72.5986H16.1958H113.954H115.364L114.269 71.7104C111.553 69.5067 109.582 66.5078 108.628 63.1267C107.674 59.7456 107.785 56.1495 108.945 52.8345C110.104 49.5195 112.256 46.6494 115.102 44.6196C117.948 42.5898 121.348 41.5 124.834 41.5C128.319 41.5 131.72 42.5898 134.565 44.6196C137.411 46.6494 139.563 49.5195 140.723 52.8345C141.882 56.1495 141.993 59.7456 141.039 63.1267C140.085 66.5078 138.114 69.5067 135.398 71.7104L134.303 72.5986H135.713H144.804ZM110.841 58.5016V58.5021C110.845 62.2382 112.319 65.8209 114.942 68.4639C117.565 71.107 121.122 72.5944 124.833 72.5986H124.834C127.602 72.5986 130.308 71.7713 132.609 70.2219C134.91 68.6724 136.703 66.4705 137.762 63.895C138.82 61.3196 139.097 58.4859 138.558 55.7521C138.018 53.0183 136.686 50.5066 134.729 48.5348C132.773 46.563 130.279 45.2198 127.564 44.6755C124.849 44.1313 122.035 44.4107 119.477 45.4781C116.92 46.5456 114.735 48.353 113.198 50.6711C111.661 52.9893 110.841 55.7143 110.841 58.5016Z" fill="#528AC8"/>
<path d="M144.804 72.5986H144.837L144.869 72.5943C145.073 72.5676 145.279 72.5848 145.475 72.6449C145.671 72.705 145.853 72.8067 146.007 72.9434C146.162 73.0801 146.286 73.2486 146.371 73.4379C146.456 73.6273 146.5 73.8329 146.5 74.0411C146.5 74.2492 146.456 74.4548 146.371 74.6442C146.286 74.8335 146.162 75.0021 146.007 75.1387C145.853 75.2754 145.671 75.3771 145.475 75.4372C145.279 75.4973 145.073 75.5145 144.869 75.4878L144.837 75.4835H144.804H16.1958H16.163L16.1305 75.4878C15.9274 75.5145 15.7209 75.4973 15.5248 75.4372C15.3287 75.3771 15.1473 75.2754 14.9928 75.1387C14.8383 75.0021 14.7142 74.8335 14.6292 74.6442C14.5441 74.4548 14.5 74.2492 14.5 74.0411C14.5 73.8329 14.5441 73.6273 14.6292 73.4379L14.1731 73.233L14.6292 73.4379C14.7142 73.2486 14.8383 73.0801 14.9928 72.9434C15.1473 72.8067 15.3287 72.705 15.5248 72.6449C15.7209 72.5848 15.9274 72.5676 16.1305 72.5943L16.163 72.5986H16.1958H113.954H115.364L114.269 71.7104C111.553 69.5067 109.582 66.5078 108.628 63.1267C107.674 59.7456 107.785 56.1495 108.945 52.8345C110.104 49.5195 112.256 46.6494 115.102 44.6196C117.948 42.5898 121.348 41.5 124.834 41.5C128.319 41.5 131.72 42.5898 134.565 44.6196C137.411 46.6494 139.563 49.5195 140.723 52.8345C141.882 56.1495 141.993 59.7456 141.039 63.1267C140.085 66.5078 138.114 69.5067 135.398 71.7104L134.303 72.5986H135.713H144.804ZM110.841 58.5016V58.5021C110.845 62.2382 112.319 65.8209 114.942 68.4639C117.565 71.107 121.122 72.5944 124.833 72.5986H124.834C127.602 72.5986 130.308 71.7713 132.609 70.2219C134.91 68.6724 136.703 66.4705 137.762 63.895C138.82 61.3196 139.097 58.4859 138.558 55.7521C138.018 53.0183 136.686 50.5066 134.729 48.5348C132.773 46.563 130.279 45.2198 127.564 44.6755C124.849 44.1313 122.035 44.4107 119.477 45.4781C116.92 46.5456 114.735 48.353 113.198 50.6711C111.661 52.9893 110.841 55.7143 110.841 58.5016Z" stroke="#3D6CB4"/>
<path d="M144.804 72.5986H144.837L144.869 72.5943C145.073 72.5676 145.279 72.5848 145.475 72.6449C145.671 72.705 145.853 72.8067 146.007 72.9434C146.162 73.0801 146.286 73.2486 146.371 73.4379C146.456 73.6273 146.5 73.8329 146.5 74.0411C146.5 74.2492 146.456 74.4548 146.371 74.6442C146.286 74.8335 146.162 75.0021 146.007 75.1387C145.853 75.2754 145.671 75.3771 145.475 75.4372C145.279 75.4973 145.073 75.5145 144.869 75.4878L144.837 75.4835H144.804H16.1958H16.163L16.1305 75.4878C15.9274 75.5145 15.7209 75.4973 15.5248 75.4372C15.3287 75.3771 15.1473 75.2754 14.9928 75.1387C14.8383 75.0021 14.7142 74.8335 14.6292 74.6442C14.5441 74.4548 14.5 74.2492 14.5 74.0411C14.5 73.8329 14.5441 73.6273 14.6292 73.4379L14.1731 73.233L14.6292 73.4379C14.7142 73.2486 14.8383 73.0801 14.9928 72.9434C15.1473 72.8067 15.3287 72.705 15.5248 72.6449C15.7209 72.5848 15.9274 72.5676 16.1305 72.5943L16.163 72.5986H16.1958H113.954H115.364L114.269 71.7104C111.553 69.5067 109.582 66.5078 108.628 63.1267C107.674 59.7456 107.785 56.1495 108.945 52.8345C110.104 49.5195 112.256 46.6494 115.102 44.6196C117.948 42.5898 121.348 41.5 124.834 41.5C128.319 41.5 131.72 42.5898 134.565 44.6196C137.411 46.6494 139.563 49.5195 140.723 52.8345C141.882 56.1495 141.993 59.7456 141.039 63.1267C140.085 66.5078 138.114 69.5067 135.398 71.7104L134.303 72.5986H135.713H144.804ZM110.841 58.5016V58.5021C110.845 62.2382 112.319 65.8209 114.942 68.4639C117.565 71.107 121.122 72.5944 124.833 72.5986H124.834C127.602 72.5986 130.308 71.7713 132.609 70.2219C134.91 68.6724 136.703 66.4705 137.762 63.895C138.82 61.3196 139.097 58.4859 138.558 55.7521C138.018 53.0183 136.686 50.5066 134.729 48.5348C132.773 46.563 130.279 45.2198 127.564 44.6755C124.849 44.1313 122.035 44.4107 119.477 45.4781C116.92 46.5456 114.735 48.353 113.198 50.6711C111.661 52.9893 110.841 55.7143 110.841 58.5016Z" stroke="url(#paint10_linear)"/>
<defs>
<linearGradient id="paint0_linear" x1="45" y1="31" x2="45" y2="52" gradientUnits="userSpaceOnUse">
<stop stop-color="white"/>
<stop offset="1" stop-color="white" stop-opacity="0"/>
</linearGradient>
<linearGradient id="paint1_linear" x1="78" y1="16" x2="78" y2="33" gradientUnits="userSpaceOnUse">
<stop stop-color="white"/>
<stop offset="1" stop-color="white" stop-opacity="0"/>
</linearGradient>
<linearGradient id="paint2_linear" x1="97" y1="32" x2="97" y2="36" gradientUnits="userSpaceOnUse">
<stop stop-color="white"/>
<stop offset="1" stop-color="white" stop-opacity="0"/>
</linearGradient>
<linearGradient id="paint3_linear" x1="76.5" y1="0" x2="76.5" y2="70" gradientUnits="userSpaceOnUse">
<stop stop-color="white"/>
<stop offset="1" stop-color="white" stop-opacity="0"/>
</linearGradient>
<linearGradient id="paint4_linear" x1="100.5" y1="40" x2="100.5" y2="68" gradientUnits="userSpaceOnUse">
<stop stop-color="white"/>
<stop offset="1" stop-color="white" stop-opacity="0"/>
</linearGradient>
<linearGradient id="paint5_linear" x1="124.5" y1="49" x2="124.5" y2="53" gradientUnits="userSpaceOnUse">
<stop stop-color="white"/>
<stop offset="1" stop-color="white" stop-opacity="0"/>
</linearGradient>
<linearGradient id="paint6_linear" x1="2" y1="72" x2="2" y2="76" gradientUnits="userSpaceOnUse">
<stop stop-color="white"/>
<stop offset="1" stop-color="white" stop-opacity="0"/>
</linearGradient>
<linearGradient id="paint7_linear" x1="80.5" y1="72" x2="80.5" y2="76" gradientUnits="userSpaceOnUse">
<stop stop-color="white"/>
<stop offset="1" stop-color="white" stop-opacity="0"/>
</linearGradient>
<linearGradient id="paint8_linear" x1="159" y1="72" x2="159" y2="76" gradientUnits="userSpaceOnUse">
<stop stop-color="white"/>
<stop offset="1" stop-color="white" stop-opacity="0"/>
</linearGradient>
<linearGradient id="paint9_linear" x1="80.5" y1="79" x2="80.5" y2="89" gradientUnits="userSpaceOnUse">
<stop stop-color="white"/>
<stop offset="1" stop-color="white" stop-opacity="0"/>
</linearGradient>
<linearGradient id="paint10_linear" x1="80.5" y1="41" x2="80.5" y2="76" gradientUnits="userSpaceOnUse">
<stop stop-color="white"/>
<stop offset="1" stop-color="white" stop-opacity="0"/>
</linearGradient>
</defs>
</svg>
