<svg width="161" height="94" viewBox="0 0 161 94" fill="none" xmlns="http://www.w3.org/2000/svg">
<path d="M30.9596 85.2406C29.8567 83.9509 29.1696 82.2954 29.1696 80.4838V22.183C29.1696 18.0796 32.575 14.7528 36.7755 14.7528H111.753" stroke="#3D6CB4" stroke-width="2" stroke-miterlimit="10" stroke-linecap="round" stroke-linejoin="round"/>
<path d="M30.9596 85.2406C29.8567 83.9509 29.1696 82.2954 29.1696 80.4838V22.183C29.1696 18.0796 32.575 14.7528 36.7755 14.7528H111.753" stroke="url(#paint0_linear)" stroke-opacity="0.75" stroke-width="2" stroke-miterlimit="10" stroke-linecap="round" stroke-linejoin="round"/>
<path d="M146.058 43.7275V80.4838C146.058 82.3033 145.406 83.9487 144.295 85.2406" stroke="#3D6CB4" stroke-width="2" stroke-miterlimit="10" stroke-linecap="round" stroke-linejoin="round"/>
<path d="M146.058 43.7275V80.4838C146.058 82.3033 145.406 83.9487 144.295 85.2406" stroke="url(#paint1_linear)" stroke-opacity="0.75" stroke-width="2" stroke-miterlimit="10" stroke-linecap="round" stroke-linejoin="round"/>
<path d="M141.596 49.9961V73.3364C141.596 77.4399 138.191 80.7667 133.99 80.7667H41.238C37.0375 80.7667 33.6321 77.4399 33.6321 73.3364V26.0071C33.6321 21.9036 37.0375 18.5768 41.238 18.5768H112.296" stroke="#3D6CB4" stroke-width="2" stroke-miterlimit="10" stroke-linecap="round" stroke-linejoin="round"/>
<path d="M141.596 49.9961V73.3364C141.596 77.4399 138.191 80.7667 133.99 80.7667H41.238C37.0375 80.7667 33.6321 77.4399 33.6321 73.3364V26.0071C33.6321 21.9036 37.0375 18.5768 41.238 18.5768H112.296" stroke="url(#paint2_linear)" stroke-opacity="0.75" stroke-width="2" stroke-miterlimit="10" stroke-linecap="round" stroke-linejoin="round"/>
<path d="M154.795 85.2406H20.4331C18.5316 85.2406 16.9897 86.7468 16.9897 88.6044V88.8468C16.9897 90.7044 18.5316 92.2107 20.4331 92.2107H154.794C156.696 92.2107 158.238 90.7044 158.238 88.8468V88.6044C158.239 86.7468 156.697 85.2406 154.795 85.2406Z" stroke="#3D6CB4" stroke-width="2" stroke-miterlimit="10" stroke-linecap="round" stroke-linejoin="round"/>
<path d="M154.795 85.2406H20.4331C18.5316 85.2406 16.9897 86.7468 16.9897 88.6044V88.8468C16.9897 90.7044 18.5316 92.2107 20.4331 92.2107H154.794C156.696 92.2107 158.238 90.7044 158.238 88.8468V88.6044C158.239 86.7468 156.697 85.2406 154.795 85.2406Z" stroke="url(#paint3_linear)" stroke-opacity="0.75" stroke-width="2" stroke-miterlimit="10" stroke-linecap="round" stroke-linejoin="round"/>
<g opacity="0.3">
<path d="M109.532 87.7267H65.6965C65.2795 87.7267 64.9743 87.3956 64.9743 87.0443V86.923C64.9743 86.5719 65.2792 86.2406 65.6965 86.2406H109.532C109.949 86.2406 110.254 86.5717 110.254 86.923V87.043C110.254 87.3958 109.947 87.7267 109.532 87.7267Z" fill="#528AC8"/>
<path d="M109.532 87.7267H65.6965C65.2795 87.7267 64.9743 87.3956 64.9743 87.0443V86.923C64.9743 86.5719 65.2792 86.2406 65.6965 86.2406H109.532C109.949 86.2406 110.254 86.5717 110.254 86.923V87.043C110.254 87.3958 109.947 87.7267 109.532 87.7267Z" stroke="#3D6CB4" stroke-width="2"/>
<path d="M109.532 87.7267H65.6965C65.2795 87.7267 64.9743 87.3956 64.9743 87.0443V86.923C64.9743 86.5719 65.2792 86.2406 65.6965 86.2406H109.532C109.949 86.2406 110.254 86.5717 110.254 86.923V87.043C110.254 87.3958 109.947 87.7267 109.532 87.7267Z" stroke="url(#paint4_linear)" stroke-opacity="0.75" stroke-width="2"/>
</g>
<path d="M109.532 88.7267H65.6965C64.7498 88.7267 63.9743 87.9702 63.9743 87.0443V86.923C63.9743 85.9982 64.7487 85.2406 65.6965 85.2406H109.532C110.479 85.2406 111.254 85.9971 111.254 86.923V87.0443C111.253 87.9691 110.479 88.7267 109.532 88.7267Z" stroke="#3D6CB4" stroke-width="2" stroke-miterlimit="10" stroke-linecap="round" stroke-linejoin="round"/>
<path d="M109.532 88.7267H65.6965C64.7498 88.7267 63.9743 87.9702 63.9743 87.0443V86.923C63.9743 85.9982 64.7487 85.2406 65.6965 85.2406H109.532C110.479 85.2406 111.254 85.9971 111.254 86.923V87.0443C111.253 87.9691 110.479 88.7267 109.532 88.7267Z" stroke="url(#paint5_linear)" stroke-opacity="0.75" stroke-width="2" stroke-miterlimit="10" stroke-linecap="round" stroke-linejoin="round"/>
<path d="M45.4833 29.9209H85.6961" stroke="#3D6CB4" stroke-width="2" stroke-miterlimit="10" stroke-linecap="round" stroke-linejoin="round"/>
<path d="M45.4833 29.9209H85.6961" stroke="url(#paint6_linear)" stroke-opacity="0.75" stroke-width="2" stroke-miterlimit="10" stroke-linecap="round" stroke-linejoin="round"/>
<path d="M45.4833 41.1449H91.4407" stroke="#3D6CB4" stroke-width="2" stroke-miterlimit="10" stroke-linecap="round" stroke-linejoin="round"/>
<path d="M45.4833 41.1449H91.4407" stroke="url(#paint7_linear)" stroke-opacity="0.75" stroke-width="2" stroke-miterlimit="10" stroke-linecap="round" stroke-linejoin="round"/>
<path d="M6.57924 12.0758V22.9766" stroke="#3D6CB4" stroke-width="2" stroke-miterlimit="10" stroke-linecap="round" stroke-linejoin="round"/>
<path d="M6.57924 12.0758V22.9766" stroke="url(#paint8_linear)" stroke-opacity="0.75" stroke-width="2" stroke-miterlimit="10" stroke-linecap="round" stroke-linejoin="round"/>
<path d="M12.1585 17.5262H1" stroke="#3D6CB4" stroke-width="2" stroke-miterlimit="10" stroke-linecap="round" stroke-linejoin="round"/>
<path d="M12.1585 17.5262H1" stroke="url(#paint9_linear)" stroke-opacity="0.75" stroke-width="2" stroke-miterlimit="10" stroke-linecap="round" stroke-linejoin="round"/>
<path d="M15.7294 36.3567V42.8835" stroke="#3D6CB4" stroke-width="2" stroke-miterlimit="10" stroke-linecap="round" stroke-linejoin="round"/>
<path d="M15.7294 36.3567V42.8835" stroke="url(#paint10_linear)" stroke-opacity="0.75" stroke-width="2" stroke-miterlimit="10" stroke-linecap="round" stroke-linejoin="round"/>
<path d="M19.0693 39.6195H12.3894" stroke="#3D6CB4" stroke-width="2" stroke-miterlimit="10" stroke-linecap="round" stroke-linejoin="round"/>
<path d="M19.0693 39.6195H12.3894" stroke="url(#paint11_linear)" stroke-opacity="0.75" stroke-width="2" stroke-miterlimit="10" stroke-linecap="round" stroke-linejoin="round"/>
<path d="M156.288 24.0732L160 23.0888L157.624 14.5418L153.355 15.6743C152.154 13.5451 150.774 11.8895 149.211 10.5146L151.375 6.5469L143.392 2.00006L141.199 5.72306C138.773 4.97105 136.075 4.61188 133.596 4.70841L132.566 1L124.4 3.16623L125.431 6.87464C122.077 8.3259 120.674 9.72329 118.972 11.5696L114.913 9.45504L110.261 17.2523L114.187 19.8058C113.551 21.7644 113.171 23.8869 113.237 26.3168L108.629 27.5391L111.005 36.0862L115.056 35.0109C116.297 37.7406 118.041 39.8597 120.251 41.8048L117.989 45.4201L125.923 49.7907L128.505 45.8702C130.931 46.6222 132.853 47.0925 136.497 46.6873L137.704 51.0265L145.869 48.8602L144.663 44.521C146.85 43.3784 149.006 41.7824 150.709 39.9349L154.56 42.1045L159.108 34.3341L155.326 32.4979C156.228 29.7289 156.631 27.0419 156.288 24.0732ZM138.014 38.6206C130.762 40.5444 123.286 36.3612 121.316 29.2766C119.347 22.192 123.629 14.8886 130.881 12.9637C138.133 11.0399 145.61 15.223 147.58 22.3076C149.549 29.3933 145.266 36.6968 138.014 38.6206Z" stroke="#3D6CB4" stroke-width="2" stroke-miterlimit="10" stroke-linecap="round" stroke-linejoin="round"/>
<path d="M156.288 24.0732L160 23.0888L157.624 14.5418L153.355 15.6743C152.154 13.5451 150.774 11.8895 149.211 10.5146L151.375 6.5469L143.392 2.00006L141.199 5.72306C138.773 4.97105 136.075 4.61188 133.596 4.70841L132.566 1L124.4 3.16623L125.431 6.87464C122.077 8.3259 120.674 9.72329 118.972 11.5696L114.913 9.45504L110.261 17.2523L114.187 19.8058C113.551 21.7644 113.171 23.8869 113.237 26.3168L108.629 27.5391L111.005 36.0862L115.056 35.0109C116.297 37.7406 118.041 39.8597 120.251 41.8048L117.989 45.4201L125.923 49.7907L128.505 45.8702C130.931 46.6222 132.853 47.0925 136.497 46.6873L137.704 51.0265L145.869 48.8602L144.663 44.521C146.85 43.3784 149.006 41.7824 150.709 39.9349L154.56 42.1045L159.108 34.3341L155.326 32.4979C156.228 29.7289 156.631 27.0419 156.288 24.0732ZM138.014 38.6206C130.762 40.5444 123.286 36.3612 121.316 29.2766C119.347 22.192 123.629 14.8886 130.881 12.9637C138.133 11.0399 145.61 15.223 147.58 22.3076C149.549 29.3933 145.266 36.6968 138.014 38.6206Z" stroke="url(#paint12_linear)" stroke-opacity="0.75" stroke-width="2" stroke-miterlimit="10" stroke-linecap="round" stroke-linejoin="round"/>
<g opacity="0.3">
<path d="M156.031 23.1066L155.195 23.3284L155.294 24.1881C155.618 26.9851 155.243 29.5255 154.375 32.1882L154.105 33.0169L154.889 33.3975L157.699 34.7617L154.194 40.7505L151.199 39.0637L150.51 38.6751L149.973 39.2572C148.356 41.0124 146.295 42.5404 144.2 43.6347L143.483 44.0093L143.699 44.7889L144.635 48.1532L138.403 49.8065L137.461 46.4194L137.233 45.5993L136.387 45.6934C132.922 46.0787 131.144 45.6412 128.802 44.915L128.084 44.6925L127.67 45.32L125.596 48.469L119.398 45.0543L121.099 42.3353L121.55 41.6152L120.912 41.0541C118.782 39.1799 117.136 37.1704 115.966 34.5971L115.616 33.8275L114.799 34.0444L111.704 34.8661L109.863 28.2463L113.494 27.2834L114.258 27.0805L114.237 26.2894C114.174 23.986 114.533 21.9775 115.138 20.1149L115.375 19.3856L114.733 18.9675L111.613 16.9386L115.289 10.7781L118.509 12.4565L119.188 12.81L119.707 12.2476C121.357 10.4575 122.65 9.16767 125.828 7.7924L126.628 7.44637L126.394 6.60688L125.635 3.87334L131.867 2.21999L132.633 4.97617L132.845 5.73844L133.635 5.70765C135.998 5.61563 138.583 5.9591 140.903 6.6782L141.659 6.9126L142.06 6.23065L143.754 3.35673L150.027 6.93L148.334 10.0359L147.951 10.7374L148.551 11.2653C150.029 12.5659 151.338 14.1336 152.483 16.1654L152.863 16.8391L153.611 16.6408L156.925 15.7617L158.765 22.3816L156.031 23.1066ZM130.625 11.9971L130.625 11.9971C122.853 14.0599 118.229 21.9048 120.353 29.5444C122.474 37.1747 130.507 41.6465 138.27 39.5872C146.042 37.5255 150.667 29.6806 148.543 22.0399L148.543 22.0397C146.421 14.4096 138.388 9.93769 130.625 11.9971Z" fill="#528AC8"/>
<path d="M156.031 23.1066L155.195 23.3284L155.294 24.1881C155.618 26.9851 155.243 29.5255 154.375 32.1882L154.105 33.0169L154.889 33.3975L157.699 34.7617L154.194 40.7505L151.199 39.0637L150.51 38.6751L149.973 39.2572C148.356 41.0124 146.295 42.5404 144.2 43.6347L143.483 44.0093L143.699 44.7889L144.635 48.1532L138.403 49.8065L137.461 46.4194L137.233 45.5993L136.387 45.6934C132.922 46.0787 131.144 45.6412 128.802 44.915L128.084 44.6925L127.67 45.32L125.596 48.469L119.398 45.0543L121.099 42.3353L121.55 41.6152L120.912 41.0541C118.782 39.1799 117.136 37.1704 115.966 34.5971L115.616 33.8275L114.799 34.0444L111.704 34.8661L109.863 28.2463L113.494 27.2834L114.258 27.0805L114.237 26.2894C114.174 23.986 114.533 21.9775 115.138 20.1149L115.375 19.3856L114.733 18.9675L111.613 16.9386L115.289 10.7781L118.509 12.4565L119.188 12.81L119.707 12.2476C121.357 10.4575 122.65 9.16767 125.828 7.7924L126.628 7.44637L126.394 6.60688L125.635 3.87334L131.867 2.21999L132.633 4.97617L132.845 5.73844L133.635 5.70765C135.998 5.61563 138.583 5.9591 140.903 6.6782L141.659 6.9126L142.06 6.23065L143.754 3.35673L150.027 6.93L148.334 10.0359L147.951 10.7374L148.551 11.2653C150.029 12.5659 151.338 14.1336 152.483 16.1654L152.863 16.8391L153.611 16.6408L156.925 15.7617L158.765 22.3816L156.031 23.1066ZM130.625 11.9971L130.625 11.9971C122.853 14.0599 118.229 21.9048 120.353 29.5444C122.474 37.1747 130.507 41.6465 138.27 39.5872C146.042 37.5255 150.667 29.6806 148.543 22.0399L148.543 22.0397C146.421 14.4096 138.388 9.93769 130.625 11.9971Z" stroke="#3D6CB4" stroke-width="2"/>
<path d="M156.031 23.1066L155.195 23.3284L155.294 24.1881C155.618 26.9851 155.243 29.5255 154.375 32.1882L154.105 33.0169L154.889 33.3975L157.699 34.7617L154.194 40.7505L151.199 39.0637L150.51 38.6751L149.973 39.2572C148.356 41.0124 146.295 42.5404 144.2 43.6347L143.483 44.0093L143.699 44.7889L144.635 48.1532L138.403 49.8065L137.461 46.4194L137.233 45.5993L136.387 45.6934C132.922 46.0787 131.144 45.6412 128.802 44.915L128.084 44.6925L127.67 45.32L125.596 48.469L119.398 45.0543L121.099 42.3353L121.55 41.6152L120.912 41.0541C118.782 39.1799 117.136 37.1704 115.966 34.5971L115.616 33.8275L114.799 34.0444L111.704 34.8661L109.863 28.2463L113.494 27.2834L114.258 27.0805L114.237 26.2894C114.174 23.986 114.533 21.9775 115.138 20.1149L115.375 19.3856L114.733 18.9675L111.613 16.9386L115.289 10.7781L118.509 12.4565L119.188 12.81L119.707 12.2476C121.357 10.4575 122.65 9.16767 125.828 7.7924L126.628 7.44637L126.394 6.60688L125.635 3.87334L131.867 2.21999L132.633 4.97617L132.845 5.73844L133.635 5.70765C135.998 5.61563 138.583 5.9591 140.903 6.6782L141.659 6.9126L142.06 6.23065L143.754 3.35673L150.027 6.93L148.334 10.0359L147.951 10.7374L148.551 11.2653C150.029 12.5659 151.338 14.1336 152.483 16.1654L152.863 16.8391L153.611 16.6408L156.925 15.7617L158.765 22.3816L156.031 23.1066ZM130.625 11.9971L130.625 11.9971C122.853 14.0599 118.229 21.9048 120.353 29.5444C122.474 37.1747 130.507 41.6465 138.27 39.5872C146.042 37.5255 150.667 29.6806 148.543 22.0399L148.543 22.0397C146.421 14.4096 138.388 9.93769 130.625 11.9971Z" stroke="url(#paint13_linear)" stroke-opacity="0.75" stroke-width="2"/>
</g>
<path d="M45.4833 51.2465H107.526" stroke="#3D6CB4" stroke-width="2" stroke-miterlimit="10" stroke-linecap="round" stroke-linejoin="round"/>
<path d="M45.4833 51.2465H107.526" stroke="url(#paint14_linear)" stroke-opacity="0.75" stroke-width="2" stroke-miterlimit="10" stroke-linecap="round" stroke-linejoin="round"/>
<g opacity="0.3">
<path d="M127.762 70.792H47.4664C46.4693 70.792 45.6894 69.9975 45.6894 69.0791V63.2629C45.6894 62.3454 46.4696 61.55 47.4664 61.55H127.762C128.759 61.55 129.539 62.3445 129.539 63.2629V69.0791C129.539 69.9975 128.759 70.792 127.762 70.792Z" fill="#528AC8"/>
<path d="M127.762 70.792H47.4664C46.4693 70.792 45.6894 69.9975 45.6894 69.0791V63.2629C45.6894 62.3454 46.4696 61.55 47.4664 61.55H127.762C128.759 61.55 129.539 62.3445 129.539 63.2629V69.0791C129.539 69.9975 128.759 70.792 127.762 70.792Z" stroke="#3D6CB4" stroke-width="2"/>
<path d="M127.762 70.792H47.4664C46.4693 70.792 45.6894 69.9975 45.6894 69.0791V63.2629C45.6894 62.3454 46.4696 61.55 47.4664 61.55H127.762C128.759 61.55 129.539 62.3445 129.539 63.2629V69.0791C129.539 69.9975 128.759 70.792 127.762 70.792Z" stroke="url(#paint15_linear)" stroke-opacity="0.75" stroke-width="2"/>
</g>
<defs>
<linearGradient id="paint0_linear" x1="70.4612" y1="14.7528" x2="70.4612" y2="85.2406" gradientUnits="userSpaceOnUse">
<stop stop-color="white"/>
<stop offset="1" stop-color="white" stop-opacity="0"/>
</linearGradient>
<linearGradient id="paint1_linear" x1="145.176" y1="43.7275" x2="145.176" y2="85.2406" gradientUnits="userSpaceOnUse">
<stop stop-color="white"/>
<stop offset="1" stop-color="white" stop-opacity="0"/>
</linearGradient>
<linearGradient id="paint2_linear" x1="87.6142" y1="18.5768" x2="87.6142" y2="80.7667" gradientUnits="userSpaceOnUse">
<stop stop-color="white"/>
<stop offset="1" stop-color="white" stop-opacity="0"/>
</linearGradient>
<linearGradient id="paint3_linear" x1="87.6136" y1="85.2406" x2="87.6136" y2="92.2107" gradientUnits="userSpaceOnUse">
<stop stop-color="white"/>
<stop offset="1" stop-color="white" stop-opacity="0"/>
</linearGradient>
<linearGradient id="paint4_linear" x1="87.6142" y1="85.2406" x2="87.6142" y2="88.7267" gradientUnits="userSpaceOnUse">
<stop stop-color="white"/>
<stop offset="1" stop-color="white" stop-opacity="0"/>
</linearGradient>
<linearGradient id="paint5_linear" x1="87.6142" y1="85.2406" x2="87.6142" y2="88.7267" gradientUnits="userSpaceOnUse">
<stop stop-color="white"/>
<stop offset="1" stop-color="white" stop-opacity="0"/>
</linearGradient>
<linearGradient id="paint6_linear" x1="65.5897" y1="29.9209" x2="65.5897" y2="30.9209" gradientUnits="userSpaceOnUse">
<stop stop-color="white"/>
<stop offset="1" stop-color="white" stop-opacity="0"/>
</linearGradient>
<linearGradient id="paint7_linear" x1="68.462" y1="41.1449" x2="68.462" y2="42.1449" gradientUnits="userSpaceOnUse">
<stop stop-color="white"/>
<stop offset="1" stop-color="white" stop-opacity="0"/>
</linearGradient>
<linearGradient id="paint8_linear" x1="7.07924" y1="12.0758" x2="7.07924" y2="22.9766" gradientUnits="userSpaceOnUse">
<stop stop-color="white"/>
<stop offset="1" stop-color="white" stop-opacity="0"/>
</linearGradient>
<linearGradient id="paint9_linear" x1="6.57923" y1="17.5262" x2="6.57923" y2="18.5262" gradientUnits="userSpaceOnUse">
<stop stop-color="white"/>
<stop offset="1" stop-color="white" stop-opacity="0"/>
</linearGradient>
<linearGradient id="paint10_linear" x1="16.2294" y1="36.3567" x2="16.2294" y2="42.8835" gradientUnits="userSpaceOnUse">
<stop stop-color="white"/>
<stop offset="1" stop-color="white" stop-opacity="0"/>
</linearGradient>
<linearGradient id="paint11_linear" x1="15.7294" y1="39.6195" x2="15.7294" y2="40.6195" gradientUnits="userSpaceOnUse">
<stop stop-color="white"/>
<stop offset="1" stop-color="white" stop-opacity="0"/>
</linearGradient>
<linearGradient id="paint12_linear" x1="134.314" y1="1" x2="134.314" y2="51.0265" gradientUnits="userSpaceOnUse">
<stop stop-color="white"/>
<stop offset="1" stop-color="white" stop-opacity="0"/>
</linearGradient>
<linearGradient id="paint13_linear" x1="134.314" y1="1" x2="134.314" y2="51.0265" gradientUnits="userSpaceOnUse">
<stop stop-color="white"/>
<stop offset="1" stop-color="white" stop-opacity="0"/>
</linearGradient>
<linearGradient id="paint14_linear" x1="76.5046" y1="51.2465" x2="76.5046" y2="52.2465" gradientUnits="userSpaceOnUse">
<stop stop-color="white"/>
<stop offset="1" stop-color="white" stop-opacity="0"/>
</linearGradient>
<linearGradient id="paint15_linear" x1="87.6142" y1="60.55" x2="87.6142" y2="71.792" gradientUnits="userSpaceOnUse">
<stop stop-color="white"/>
<stop offset="1" stop-color="white" stop-opacity="0"/>
</linearGradient>
</defs>
</svg>
