<svg width="93" height="99" viewBox="0 0 93 99" fill="none" xmlns="http://www.w3.org/2000/svg">
<mask id="path-1-inside-1" fill="white">
<path d="M89.6619 37.9603C89.4298 37.6389 89.0831 37.4186 88.6931 37.3447C88.3031 37.2709 87.8995 37.3491 87.5656 37.5633C87.2317 37.7775 86.9928 38.1113 86.8982 38.496C86.8037 38.8807 86.8606 39.2869 87.0573 39.6309C88.9177 42.588 89.9046 46.0086 89.9046 49.5C89.9046 52.9914 88.9177 56.412 87.0573 59.3691C86.8358 59.7138 86.7604 60.1322 86.8476 60.5323C86.9348 60.9325 87.1775 61.2818 87.5224 61.5037C87.7695 61.6697 88.0617 61.7561 88.3596 61.7512C88.6201 61.7568 88.8775 61.6939 89.106 61.5691C89.3346 61.4442 89.5262 61.2617 89.6619 61.0397C91.8428 57.5841 93 53.5836 93 49.5C93 45.4164 91.8428 41.4159 89.6619 37.9603ZM63.5539 6.1875H29.4461C27.3902 6.1875 25.4185 7.00237 23.9648 8.45285C22.511 9.90332 21.6943 11.8706 21.6943 13.9219V85.0781C21.6943 87.1294 22.511 89.0967 23.9648 90.5472C25.4185 91.9976 27.3902 92.8125 29.4461 92.8125H63.5539C64.5719 92.8125 65.5799 92.6124 66.5204 92.2238C67.4609 91.8351 68.3154 91.2654 69.0352 90.5472C69.7551 89.829 70.326 88.9763 70.7156 88.0379C71.1052 87.0996 71.3057 86.0938 71.3057 85.0781V13.9219C71.3057 12.9062 71.1052 11.9004 70.7156 10.9621C70.326 10.0237 69.7551 9.17105 69.0352 8.45285C68.3154 7.73464 67.4609 7.16493 66.5204 6.77624C65.5799 6.38756 64.5719 6.1875 63.5539 6.1875ZM68.205 85.0781C68.205 86.3089 67.715 87.4893 66.8427 88.3595C65.9705 89.2298 64.7874 89.7188 63.5539 89.7188H29.4461C28.2126 89.7188 27.0295 89.2298 26.1573 88.3595C25.285 87.4893 24.795 86.3089 24.795 85.0781V13.9219C24.795 12.6911 25.285 11.5107 26.1573 10.6405C27.0295 9.77017 28.2126 9.28125 29.4461 9.28125H63.5539C64.7874 9.28125 65.9705 9.77017 66.8427 10.6405C67.715 11.5107 68.205 12.6911 68.205 13.9219V85.0781ZM29.4461 15.4688C29.7527 15.4688 30.0525 15.378 30.3074 15.2081C30.5624 15.0381 30.7611 14.7965 30.8784 14.5138C30.9958 14.2312 31.0265 13.9202 30.9667 13.6201C30.9068 13.32 30.7592 13.0444 30.5424 12.8281C30.3255 12.6117 30.0493 12.4644 29.7486 12.4047C29.4478 12.345 29.1361 12.3757 28.8528 12.4927C28.5695 12.6098 28.3274 12.8081 28.157 13.0625C27.9867 13.3169 27.8957 13.6159 27.8957 13.9219C27.8957 14.3321 28.0591 14.7256 28.3498 15.0157C28.6406 15.3058 29.0349 15.4688 29.4461 15.4688ZM11.8341 39.5691C11.5086 39.3182 11.0994 39.201 10.6902 39.2412C10.281 39.2815 9.90263 39.4762 9.63255 39.7856C7.40757 42.5366 6.19407 45.965 6.19407 49.5C6.19407 53.035 7.40757 56.4634 9.63255 59.2144C9.7814 59.3894 9.96671 59.5299 10.1756 59.626C10.3844 59.7222 10.6118 59.7718 10.8418 59.7712C11.1998 59.7626 11.5464 59.6437 11.8341 59.4309C12.1441 59.1615 12.3393 58.784 12.3797 58.3757C12.42 57.9673 12.3025 57.5591 12.0511 57.2344C10.2899 55.0395 9.33023 52.3117 9.33023 49.5C9.33023 46.6883 10.2899 43.9605 12.0511 41.7656C12.3025 41.4409 12.42 41.0327 12.3797 40.6243C12.3393 40.216 12.1441 39.8385 11.8341 39.5691ZM5.4776 37.4963C5.13205 37.2753 4.71278 37.2001 4.31172 37.287C3.91066 37.374 3.56054 37.6162 3.33811 37.9603C1.15721 41.4159 0 45.4164 0 49.5C0 53.5836 1.15721 57.5841 3.33811 61.0397C3.4575 61.2847 3.64214 61.4923 3.87184 61.6396C4.10153 61.7869 4.36743 61.8684 4.64041 61.875C4.93827 61.8798 5.23045 61.7934 5.4776 61.6275C5.82253 61.4056 6.06519 61.0562 6.15238 60.6561C6.23957 60.2559 6.16417 59.8376 5.94271 59.4928C4.08227 56.5358 3.09539 53.1152 3.09539 49.6238C3.09539 46.1324 4.08227 42.7117 5.94271 39.7547C6.07265 39.5799 6.16417 39.3798 6.21129 39.1673C6.25841 38.9549 6.26008 38.7349 6.21619 38.5217C6.17229 38.3086 6.08382 38.1071 5.95655 37.9304C5.82928 37.7537 5.66608 37.6057 5.4776 37.4963ZM29.4461 83.5312C29.1395 83.5312 28.8397 83.622 28.5848 83.7919C28.3298 83.9619 28.1311 84.2035 28.0138 84.4862C27.8964 84.7688 27.8657 85.0798 27.9255 85.3799C27.9853 85.68 28.133 85.9556 28.3498 86.1719C28.5666 86.3883 28.8429 86.5356 29.1436 86.5953C29.4444 86.655 29.7561 86.6243 30.0394 86.5072C30.3227 86.3902 30.5648 86.1919 30.7352 85.9375C30.9055 85.6831 30.9965 85.3841 30.9965 85.0781C30.9965 84.6679 30.8331 84.2744 30.5424 83.9843C30.2516 83.6942 29.8573 83.5312 29.4461 83.5312ZM46.5 34.0312C47.7265 34.0312 48.9255 33.6684 49.9453 32.9885C50.9651 32.3086 51.76 31.3422 52.2294 30.2116C52.6987 29.081 52.8215 27.8369 52.5823 26.6366C52.343 25.4364 51.7523 24.3339 50.8851 23.4685C50.0178 22.6032 48.9128 22.0139 47.7098 21.7751C46.5069 21.5364 45.26 21.6589 44.1268 22.1272C42.9937 22.5956 42.0251 23.3886 41.3437 24.4062C40.6623 25.4237 40.2986 26.62 40.2986 27.8438C40.2986 29.4848 40.9519 31.0586 42.1149 32.219C43.2779 33.3794 44.8553 34.0312 46.5 34.0312ZM46.5 24.75C47.1133 24.75 47.7128 24.9314 48.2227 25.2714C48.7326 25.6113 49.13 26.0945 49.3647 26.6598C49.5994 27.2251 49.6608 27.8472 49.5411 28.4473C49.4215 29.0474 49.1262 29.5987 48.6925 30.0314C48.2589 30.464 47.7064 30.7587 47.1049 30.8781C46.5034 30.9974 45.88 30.9362 45.3134 30.702C44.7468 30.4678 44.2626 30.0713 43.9219 29.5625C43.5811 29.0538 43.3993 28.4556 43.3993 27.8438C43.3993 27.0232 43.726 26.2363 44.3075 25.6561C44.889 25.0759 45.6776 24.75 46.5 24.75ZM46.5 40.2188C48.953 40.2188 51.351 39.493 53.3906 38.1332C55.4303 36.7734 57.02 34.8407 57.9587 32.5795C58.8975 30.3182 59.1431 27.83 58.6645 25.4295C58.186 23.029 57.0047 20.824 55.2701 19.0933C53.5356 17.3626 51.3256 16.184 48.9197 15.7065C46.5138 15.229 44.02 15.4741 41.7536 16.4107C39.4873 17.3474 37.5503 18.9335 36.1874 20.9686C34.8246 23.0036 34.0972 25.3962 34.0972 27.8438C34.0972 31.1258 35.4039 34.2734 37.7299 36.5942C40.0559 38.915 43.2106 40.2188 46.5 40.2188ZM46.5 18.5625C48.3398 18.5625 50.1383 19.1068 51.668 20.1267C53.1977 21.1465 54.39 22.596 55.094 24.292C55.7981 25.9879 55.9823 27.854 55.6234 29.6544C55.2645 31.4548 54.3785 33.1086 53.0776 34.4066C51.7767 35.7046 50.1192 36.5885 48.3148 36.9467C46.5103 37.3048 44.64 37.121 42.9402 36.4185C41.2405 35.716 39.7877 34.5264 38.7656 33.0001C37.7434 31.4738 37.1979 29.6794 37.1979 27.8438C37.1979 25.3822 38.1779 23.0215 39.9224 21.2809C41.6669 19.5403 44.0329 18.5625 46.5 18.5625ZM46.5 52.5938C44.047 52.5938 41.649 53.3195 39.6094 54.6793C37.5697 56.0391 35.98 57.9718 35.0413 60.233C34.1025 62.4943 33.8569 64.9825 34.3355 67.383C34.814 69.7835 35.9953 71.9885 37.7299 73.7192C39.4644 75.4499 41.6744 76.6285 44.0803 77.106C46.4862 77.5835 48.98 77.3384 51.2464 76.4018C53.5127 75.4651 55.4497 73.879 56.8126 71.8439C58.1754 69.8089 58.9028 67.4163 58.9028 64.9688C58.9028 61.6867 57.5961 58.5391 55.2701 56.2183C52.9441 53.8975 49.7894 52.5938 46.5 52.5938ZM46.5 74.25C44.6602 74.25 42.8617 73.7057 41.332 72.6858C39.8023 71.666 38.61 70.2165 37.906 68.5205C37.2019 66.8246 37.0177 64.9585 37.3766 63.1581C37.7355 61.3577 38.6215 59.7039 39.9224 58.4059C41.2233 57.1079 42.8808 56.224 44.6852 55.8658C46.4897 55.5077 48.36 55.6915 50.0598 56.394C51.7595 57.0965 53.2123 58.2861 54.2344 59.8124C55.2566 61.3387 55.8021 63.1331 55.8021 64.9688C55.8021 67.4303 54.8221 69.791 53.0776 71.5316C51.3331 73.2722 48.9671 74.25 46.5 74.25ZM46.5 46.4062C42.8204 46.4062 39.2235 47.4949 36.164 49.5346C33.1046 51.5743 30.72 54.4733 29.3119 57.8652C27.9038 61.257 27.5354 64.9893 28.2532 68.5901C28.9711 72.1909 30.743 75.4984 33.3448 78.0944C35.9467 80.6904 39.2616 82.4583 42.8705 83.1746C46.4794 83.8908 50.2201 83.5232 53.6195 82.1183C57.019 80.7133 59.9246 78.3341 61.9689 75.2815C64.0131 72.2289 65.1043 68.6401 65.1043 64.9688C65.1043 60.0457 63.1442 55.3242 59.6552 51.8431C56.1662 48.3619 51.4342 46.4062 46.5 46.4062ZM46.5 80.4375C43.4337 80.4375 40.4362 79.5303 37.8867 77.8306C35.3371 76.1308 33.35 73.7149 32.1766 70.8884C31.0032 68.0618 30.6961 64.9516 31.2943 61.9509C31.8926 58.9503 33.3691 56.194 35.5373 54.0307C37.7055 51.8673 40.468 50.3941 43.4754 49.7972C46.4828 49.2004 49.6 49.5067 52.433 50.6775C55.2659 51.8483 57.6872 53.831 59.3907 56.3748C61.0943 58.9186 62.0036 61.9093 62.0036 64.9688C62.0036 69.0713 60.3701 73.0059 57.4627 75.9068C54.5552 78.8078 50.6118 80.4375 46.5 80.4375ZM63.5539 12.375C63.2473 12.375 62.9475 12.4657 62.6926 12.6357C62.4376 12.8057 62.2389 13.0473 62.1216 13.3299C62.0042 13.6126 61.9735 13.9236 62.0333 14.2237C62.0932 14.5237 62.2408 14.7993 62.4576 15.0157C62.6745 15.232 62.9507 15.3793 63.2514 15.439C63.5522 15.4987 63.8639 15.4681 64.1472 15.351C64.4305 15.2339 64.6726 15.0357 64.843 14.7813C65.0133 14.5269 65.1043 14.2278 65.1043 13.9219C65.1043 13.5116 64.9409 13.1182 64.6502 12.8281C64.3594 12.538 63.9651 12.375 63.5539 12.375ZM69.7553 0H23.2447C21.1888 0 19.2171 0.814869 17.7633 2.26535C16.3096 3.71582 15.4929 5.68309 15.4929 7.73438V91.2656C15.4929 93.3169 16.3096 95.2842 17.7633 96.7347C19.2171 98.1851 21.1888 99 23.2447 99H69.7553C71.8112 99 73.7829 98.1851 75.2367 96.7347C76.6904 95.2842 77.5071 93.3169 77.5071 91.2656V7.73438C77.5071 5.68309 76.6904 3.71582 75.2367 2.26535C73.7829 0.814869 71.8112 0 69.7553 0ZM74.4064 91.2656C74.4064 92.4964 73.9164 93.6768 73.0441 94.547C72.1719 95.4173 70.9889 95.9062 69.7553 95.9062H23.2447C22.0111 95.9062 20.8281 95.4173 19.9559 94.547C19.0836 93.6768 18.5936 92.4964 18.5936 91.2656V7.73438C18.5936 6.5036 19.0836 5.32324 19.9559 4.45296C20.8281 3.58267 22.0111 3.09375 23.2447 3.09375H69.7553C70.9889 3.09375 72.1719 3.58267 73.0441 4.45296C73.9164 5.32324 74.4064 6.5036 74.4064 7.73438V91.2656ZM63.5539 83.5312C63.2473 83.5312 62.9475 83.622 62.6926 83.7919C62.4376 83.9619 62.2389 84.2035 62.1216 84.4862C62.0042 84.7688 61.9735 85.0798 62.0333 85.3799C62.0932 85.68 62.2408 85.9556 62.4576 86.1719C62.6745 86.3883 62.9507 86.5356 63.2514 86.5953C63.5522 86.655 63.8639 86.6243 64.1472 86.5072C64.4305 86.3902 64.6726 86.1919 64.843 85.9375C65.0133 85.6831 65.1043 85.3841 65.1043 85.0781C65.1043 84.6679 64.9409 84.2744 64.6502 83.9843C64.3594 83.6942 63.9651 83.5312 63.5539 83.5312ZM81.1659 39.5691C80.8559 39.8385 80.6607 40.216 80.6203 40.6243C80.58 41.0327 80.6975 41.4409 80.9489 41.7656C82.7101 43.9605 83.6698 46.6883 83.6698 49.5C83.6698 52.3117 82.7101 55.0395 80.9489 57.2344C80.6975 57.5591 80.58 57.9673 80.6203 58.3757C80.6607 58.784 80.8559 59.1615 81.1659 59.4309C81.4536 59.6437 81.8002 59.7626 82.1582 59.7712C82.3882 59.7718 82.6156 59.7222 82.8244 59.626C83.0333 59.5299 83.2186 59.3894 83.3674 59.2144C85.5924 56.4634 86.8059 53.035 86.8059 49.5C86.8059 45.965 85.5924 42.5366 83.3674 39.7856C83.0974 39.4762 82.719 39.2815 82.3098 39.2412C81.9006 39.201 81.4914 39.3182 81.1659 39.5691ZM46.5 61.875C45.8867 61.875 45.2872 62.0564 44.7773 62.3964C44.2674 62.7363 43.87 63.2195 43.6353 63.7848C43.4006 64.3501 43.3392 64.9722 43.4589 65.5723C43.5785 66.1724 43.8738 66.7237 44.3075 67.1564C44.7411 67.589 45.2936 67.8837 45.8951 68.0031C46.4966 68.1224 47.12 68.0612 47.6866 67.827C48.2532 67.5928 48.7374 67.1963 49.0782 66.6875C49.4189 66.1788 49.6007 65.5806 49.6007 64.9688C49.6007 64.1482 49.274 63.3613 48.6925 62.7811C48.111 62.2009 47.3224 61.875 46.5 61.875Z"/>
</mask>
<path d="M89.6619 37.9603C89.4298 37.6389 89.0831 37.4186 88.6931 37.3447C88.3031 37.2709 87.8995 37.3491 87.5656 37.5633C87.2317 37.7775 86.9928 38.1113 86.8982 38.496C86.8037 38.8807 86.8606 39.2869 87.0573 39.6309C88.9177 42.588 89.9046 46.0086 89.9046 49.5C89.9046 52.9914 88.9177 56.412 87.0573 59.3691C86.8358 59.7138 86.7604 60.1322 86.8476 60.5323C86.9348 60.9325 87.1775 61.2818 87.5224 61.5037C87.7695 61.6697 88.0617 61.7561 88.3596 61.7512C88.6201 61.7568 88.8775 61.6939 89.106 61.5691C89.3346 61.4442 89.5262 61.2617 89.6619 61.0397C91.8428 57.5841 93 53.5836 93 49.5C93 45.4164 91.8428 41.4159 89.6619 37.9603ZM63.5539 6.1875H29.4461C27.3902 6.1875 25.4185 7.00237 23.9648 8.45285C22.511 9.90332 21.6943 11.8706 21.6943 13.9219V85.0781C21.6943 87.1294 22.511 89.0967 23.9648 90.5472C25.4185 91.9976 27.3902 92.8125 29.4461 92.8125H63.5539C64.5719 92.8125 65.5799 92.6124 66.5204 92.2238C67.4609 91.8351 68.3154 91.2654 69.0352 90.5472C69.7551 89.829 70.326 88.9763 70.7156 88.0379C71.1052 87.0996 71.3057 86.0938 71.3057 85.0781V13.9219C71.3057 12.9062 71.1052 11.9004 70.7156 10.9621C70.326 10.0237 69.7551 9.17105 69.0352 8.45285C68.3154 7.73464 67.4609 7.16493 66.5204 6.77624C65.5799 6.38756 64.5719 6.1875 63.5539 6.1875ZM68.205 85.0781C68.205 86.3089 67.715 87.4893 66.8427 88.3595C65.9705 89.2298 64.7874 89.7188 63.5539 89.7188H29.4461C28.2126 89.7188 27.0295 89.2298 26.1573 88.3595C25.285 87.4893 24.795 86.3089 24.795 85.0781V13.9219C24.795 12.6911 25.285 11.5107 26.1573 10.6405C27.0295 9.77017 28.2126 9.28125 29.4461 9.28125H63.5539C64.7874 9.28125 65.9705 9.77017 66.8427 10.6405C67.715 11.5107 68.205 12.6911 68.205 13.9219V85.0781ZM29.4461 15.4688C29.7527 15.4688 30.0525 15.378 30.3074 15.2081C30.5624 15.0381 30.7611 14.7965 30.8784 14.5138C30.9958 14.2312 31.0265 13.9202 30.9667 13.6201C30.9068 13.32 30.7592 13.0444 30.5424 12.8281C30.3255 12.6117 30.0493 12.4644 29.7486 12.4047C29.4478 12.345 29.1361 12.3757 28.8528 12.4927C28.5695 12.6098 28.3274 12.8081 28.157 13.0625C27.9867 13.3169 27.8957 13.6159 27.8957 13.9219C27.8957 14.3321 28.0591 14.7256 28.3498 15.0157C28.6406 15.3058 29.0349 15.4688 29.4461 15.4688ZM11.8341 39.5691C11.5086 39.3182 11.0994 39.201 10.6902 39.2412C10.281 39.2815 9.90263 39.4762 9.63255 39.7856C7.40757 42.5366 6.19407 45.965 6.19407 49.5C6.19407 53.035 7.40757 56.4634 9.63255 59.2144C9.7814 59.3894 9.96671 59.5299 10.1756 59.626C10.3844 59.7222 10.6118 59.7718 10.8418 59.7712C11.1998 59.7626 11.5464 59.6437 11.8341 59.4309C12.1441 59.1615 12.3393 58.784 12.3797 58.3757C12.42 57.9673 12.3025 57.5591 12.0511 57.2344C10.2899 55.0395 9.33023 52.3117 9.33023 49.5C9.33023 46.6883 10.2899 43.9605 12.0511 41.7656C12.3025 41.4409 12.42 41.0327 12.3797 40.6243C12.3393 40.216 12.1441 39.8385 11.8341 39.5691ZM5.4776 37.4963C5.13205 37.2753 4.71278 37.2001 4.31172 37.287C3.91066 37.374 3.56054 37.6162 3.33811 37.9603C1.15721 41.4159 0 45.4164 0 49.5C0 53.5836 1.15721 57.5841 3.33811 61.0397C3.4575 61.2847 3.64214 61.4923 3.87184 61.6396C4.10153 61.7869 4.36743 61.8684 4.64041 61.875C4.93827 61.8798 5.23045 61.7934 5.4776 61.6275C5.82253 61.4056 6.06519 61.0562 6.15238 60.6561C6.23957 60.2559 6.16417 59.8376 5.94271 59.4928C4.08227 56.5358 3.09539 53.1152 3.09539 49.6238C3.09539 46.1324 4.08227 42.7117 5.94271 39.7547C6.07265 39.5799 6.16417 39.3798 6.21129 39.1673C6.25841 38.9549 6.26008 38.7349 6.21619 38.5217C6.17229 38.3086 6.08382 38.1071 5.95655 37.9304C5.82928 37.7537 5.66608 37.6057 5.4776 37.4963ZM29.4461 83.5312C29.1395 83.5312 28.8397 83.622 28.5848 83.7919C28.3298 83.9619 28.1311 84.2035 28.0138 84.4862C27.8964 84.7688 27.8657 85.0798 27.9255 85.3799C27.9853 85.68 28.133 85.9556 28.3498 86.1719C28.5666 86.3883 28.8429 86.5356 29.1436 86.5953C29.4444 86.655 29.7561 86.6243 30.0394 86.5072C30.3227 86.3902 30.5648 86.1919 30.7352 85.9375C30.9055 85.6831 30.9965 85.3841 30.9965 85.0781C30.9965 84.6679 30.8331 84.2744 30.5424 83.9843C30.2516 83.6942 29.8573 83.5312 29.4461 83.5312ZM46.5 34.0312C47.7265 34.0312 48.9255 33.6684 49.9453 32.9885C50.9651 32.3086 51.76 31.3422 52.2294 30.2116C52.6987 29.081 52.8215 27.8369 52.5823 26.6366C52.343 25.4364 51.7523 24.3339 50.8851 23.4685C50.0178 22.6032 48.9128 22.0139 47.7098 21.7751C46.5069 21.5364 45.26 21.6589 44.1268 22.1272C42.9937 22.5956 42.0251 23.3886 41.3437 24.4062C40.6623 25.4237 40.2986 26.62 40.2986 27.8438C40.2986 29.4848 40.9519 31.0586 42.1149 32.219C43.2779 33.3794 44.8553 34.0312 46.5 34.0312ZM46.5 24.75C47.1133 24.75 47.7128 24.9314 48.2227 25.2714C48.7326 25.6113 49.13 26.0945 49.3647 26.6598C49.5994 27.2251 49.6608 27.8472 49.5411 28.4473C49.4215 29.0474 49.1262 29.5987 48.6925 30.0314C48.2589 30.464 47.7064 30.7587 47.1049 30.8781C46.5034 30.9974 45.88 30.9362 45.3134 30.702C44.7468 30.4678 44.2626 30.0713 43.9219 29.5625C43.5811 29.0538 43.3993 28.4556 43.3993 27.8438C43.3993 27.0232 43.726 26.2363 44.3075 25.6561C44.889 25.0759 45.6776 24.75 46.5 24.75ZM46.5 40.2188C48.953 40.2188 51.351 39.493 53.3906 38.1332C55.4303 36.7734 57.02 34.8407 57.9587 32.5795C58.8975 30.3182 59.1431 27.83 58.6645 25.4295C58.186 23.029 57.0047 20.824 55.2701 19.0933C53.5356 17.3626 51.3256 16.184 48.9197 15.7065C46.5138 15.229 44.02 15.4741 41.7536 16.4107C39.4873 17.3474 37.5503 18.9335 36.1874 20.9686C34.8246 23.0036 34.0972 25.3962 34.0972 27.8438C34.0972 31.1258 35.4039 34.2734 37.7299 36.5942C40.0559 38.915 43.2106 40.2188 46.5 40.2188ZM46.5 18.5625C48.3398 18.5625 50.1383 19.1068 51.668 20.1267C53.1977 21.1465 54.39 22.596 55.094 24.292C55.7981 25.9879 55.9823 27.854 55.6234 29.6544C55.2645 31.4548 54.3785 33.1086 53.0776 34.4066C51.7767 35.7046 50.1192 36.5885 48.3148 36.9467C46.5103 37.3048 44.64 37.121 42.9402 36.4185C41.2405 35.716 39.7877 34.5264 38.7656 33.0001C37.7434 31.4738 37.1979 29.6794 37.1979 27.8438C37.1979 25.3822 38.1779 23.0215 39.9224 21.2809C41.6669 19.5403 44.0329 18.5625 46.5 18.5625ZM46.5 52.5938C44.047 52.5938 41.649 53.3195 39.6094 54.6793C37.5697 56.0391 35.98 57.9718 35.0413 60.233C34.1025 62.4943 33.8569 64.9825 34.3355 67.383C34.814 69.7835 35.9953 71.9885 37.7299 73.7192C39.4644 75.4499 41.6744 76.6285 44.0803 77.106C46.4862 77.5835 48.98 77.3384 51.2464 76.4018C53.5127 75.4651 55.4497 73.879 56.8126 71.8439C58.1754 69.8089 58.9028 67.4163 58.9028 64.9688C58.9028 61.6867 57.5961 58.5391 55.2701 56.2183C52.9441 53.8975 49.7894 52.5938 46.5 52.5938ZM46.5 74.25C44.6602 74.25 42.8617 73.7057 41.332 72.6858C39.8023 71.666 38.61 70.2165 37.906 68.5205C37.2019 66.8246 37.0177 64.9585 37.3766 63.1581C37.7355 61.3577 38.6215 59.7039 39.9224 58.4059C41.2233 57.1079 42.8808 56.224 44.6852 55.8658C46.4897 55.5077 48.36 55.6915 50.0598 56.394C51.7595 57.0965 53.2123 58.2861 54.2344 59.8124C55.2566 61.3387 55.8021 63.1331 55.8021 64.9688C55.8021 67.4303 54.8221 69.791 53.0776 71.5316C51.3331 73.2722 48.9671 74.25 46.5 74.25ZM46.5 46.4062C42.8204 46.4062 39.2235 47.4949 36.164 49.5346C33.1046 51.5743 30.72 54.4733 29.3119 57.8652C27.9038 61.257 27.5354 64.9893 28.2532 68.5901C28.9711 72.1909 30.743 75.4984 33.3448 78.0944C35.9467 80.6904 39.2616 82.4583 42.8705 83.1746C46.4794 83.8908 50.2201 83.5232 53.6195 82.1183C57.019 80.7133 59.9246 78.3341 61.9689 75.2815C64.0131 72.2289 65.1043 68.6401 65.1043 64.9688C65.1043 60.0457 63.1442 55.3242 59.6552 51.8431C56.1662 48.3619 51.4342 46.4062 46.5 46.4062ZM46.5 80.4375C43.4337 80.4375 40.4362 79.5303 37.8867 77.8306C35.3371 76.1308 33.35 73.7149 32.1766 70.8884C31.0032 68.0618 30.6961 64.9516 31.2943 61.9509C31.8926 58.9503 33.3691 56.194 35.5373 54.0307C37.7055 51.8673 40.468 50.3941 43.4754 49.7972C46.4828 49.2004 49.6 49.5067 52.433 50.6775C55.2659 51.8483 57.6872 53.831 59.3907 56.3748C61.0943 58.9186 62.0036 61.9093 62.0036 64.9688C62.0036 69.0713 60.3701 73.0059 57.4627 75.9068C54.5552 78.8078 50.6118 80.4375 46.5 80.4375ZM63.5539 12.375C63.2473 12.375 62.9475 12.4657 62.6926 12.6357C62.4376 12.8057 62.2389 13.0473 62.1216 13.3299C62.0042 13.6126 61.9735 13.9236 62.0333 14.2237C62.0932 14.5237 62.2408 14.7993 62.4576 15.0157C62.6745 15.232 62.9507 15.3793 63.2514 15.439C63.5522 15.4987 63.8639 15.4681 64.1472 15.351C64.4305 15.2339 64.6726 15.0357 64.843 14.7813C65.0133 14.5269 65.1043 14.2278 65.1043 13.9219C65.1043 13.5116 64.9409 13.1182 64.6502 12.8281C64.3594 12.538 63.9651 12.375 63.5539 12.375ZM69.7553 0H23.2447C21.1888 0 19.2171 0.814869 17.7633 2.26535C16.3096 3.71582 15.4929 5.68309 15.4929 7.73438V91.2656C15.4929 93.3169 16.3096 95.2842 17.7633 96.7347C19.2171 98.1851 21.1888 99 23.2447 99H69.7553C71.8112 99 73.7829 98.1851 75.2367 96.7347C76.6904 95.2842 77.5071 93.3169 77.5071 91.2656V7.73438C77.5071 5.68309 76.6904 3.71582 75.2367 2.26535C73.7829 0.814869 71.8112 0 69.7553 0ZM74.4064 91.2656C74.4064 92.4964 73.9164 93.6768 73.0441 94.547C72.1719 95.4173 70.9889 95.9062 69.7553 95.9062H23.2447C22.0111 95.9062 20.8281 95.4173 19.9559 94.547C19.0836 93.6768 18.5936 92.4964 18.5936 91.2656V7.73438C18.5936 6.5036 19.0836 5.32324 19.9559 4.45296C20.8281 3.58267 22.0111 3.09375 23.2447 3.09375H69.7553C70.9889 3.09375 72.1719 3.58267 73.0441 4.45296C73.9164 5.32324 74.4064 6.5036 74.4064 7.73438V91.2656ZM63.5539 83.5312C63.2473 83.5312 62.9475 83.622 62.6926 83.7919C62.4376 83.9619 62.2389 84.2035 62.1216 84.4862C62.0042 84.7688 61.9735 85.0798 62.0333 85.3799C62.0932 85.68 62.2408 85.9556 62.4576 86.1719C62.6745 86.3883 62.9507 86.5356 63.2514 86.5953C63.5522 86.655 63.8639 86.6243 64.1472 86.5072C64.4305 86.3902 64.6726 86.1919 64.843 85.9375C65.0133 85.6831 65.1043 85.3841 65.1043 85.0781C65.1043 84.6679 64.9409 84.2744 64.6502 83.9843C64.3594 83.6942 63.9651 83.5312 63.5539 83.5312ZM81.1659 39.5691C80.8559 39.8385 80.6607 40.216 80.6203 40.6243C80.58 41.0327 80.6975 41.4409 80.9489 41.7656C82.7101 43.9605 83.6698 46.6883 83.6698 49.5C83.6698 52.3117 82.7101 55.0395 80.9489 57.2344C80.6975 57.5591 80.58 57.9673 80.6203 58.3757C80.6607 58.784 80.8559 59.1615 81.1659 59.4309C81.4536 59.6437 81.8002 59.7626 82.1582 59.7712C82.3882 59.7718 82.6156 59.7222 82.8244 59.626C83.0333 59.5299 83.2186 59.3894 83.3674 59.2144C85.5924 56.4634 86.8059 53.035 86.8059 49.5C86.8059 45.965 85.5924 42.5366 83.3674 39.7856C83.0974 39.4762 82.719 39.2815 82.3098 39.2412C81.9006 39.201 81.4914 39.3182 81.1659 39.5691ZM46.5 61.875C45.8867 61.875 45.2872 62.0564 44.7773 62.3964C44.2674 62.7363 43.87 63.2195 43.6353 63.7848C43.4006 64.3501 43.3392 64.9722 43.4589 65.5723C43.5785 66.1724 43.8738 66.7237 44.3075 67.1564C44.7411 67.589 45.2936 67.8837 45.8951 68.0031C46.4966 68.1224 47.12 68.0612 47.6866 67.827C48.2532 67.5928 48.7374 67.1963 49.0782 66.6875C49.4189 66.1788 49.6007 65.5806 49.6007 64.9688C49.6007 64.1482 49.274 63.3613 48.6925 62.7811C48.111 62.2009 47.3224 61.875 46.5 61.875Z" fill="#528AC8"/>
<path d="M89.6619 37.9603C89.4298 37.6389 89.0831 37.4186 88.6931 37.3447C88.3031 37.2709 87.8995 37.3491 87.5656 37.5633C87.2317 37.7775 86.9928 38.1113 86.8982 38.496C86.8037 38.8807 86.8606 39.2869 87.0573 39.6309C88.9177 42.588 89.9046 46.0086 89.9046 49.5C89.9046 52.9914 88.9177 56.412 87.0573 59.3691C86.8358 59.7138 86.7604 60.1322 86.8476 60.5323C86.9348 60.9325 87.1775 61.2818 87.5224 61.5037C87.7695 61.6697 88.0617 61.7561 88.3596 61.7512C88.6201 61.7568 88.8775 61.6939 89.106 61.5691C89.3346 61.4442 89.5262 61.2617 89.6619 61.0397C91.8428 57.5841 93 53.5836 93 49.5C93 45.4164 91.8428 41.4159 89.6619 37.9603ZM63.5539 6.1875H29.4461C27.3902 6.1875 25.4185 7.00237 23.9648 8.45285C22.511 9.90332 21.6943 11.8706 21.6943 13.9219V85.0781C21.6943 87.1294 22.511 89.0967 23.9648 90.5472C25.4185 91.9976 27.3902 92.8125 29.4461 92.8125H63.5539C64.5719 92.8125 65.5799 92.6124 66.5204 92.2238C67.4609 91.8351 68.3154 91.2654 69.0352 90.5472C69.7551 89.829 70.326 88.9763 70.7156 88.0379C71.1052 87.0996 71.3057 86.0938 71.3057 85.0781V13.9219C71.3057 12.9062 71.1052 11.9004 70.7156 10.9621C70.326 10.0237 69.7551 9.17105 69.0352 8.45285C68.3154 7.73464 67.4609 7.16493 66.5204 6.77624C65.5799 6.38756 64.5719 6.1875 63.5539 6.1875ZM68.205 85.0781C68.205 86.3089 67.715 87.4893 66.8427 88.3595C65.9705 89.2298 64.7874 89.7188 63.5539 89.7188H29.4461C28.2126 89.7188 27.0295 89.2298 26.1573 88.3595C25.285 87.4893 24.795 86.3089 24.795 85.0781V13.9219C24.795 12.6911 25.285 11.5107 26.1573 10.6405C27.0295 9.77017 28.2126 9.28125 29.4461 9.28125H63.5539C64.7874 9.28125 65.9705 9.77017 66.8427 10.6405C67.715 11.5107 68.205 12.6911 68.205 13.9219V85.0781ZM29.4461 15.4688C29.7527 15.4688 30.0525 15.378 30.3074 15.2081C30.5624 15.0381 30.7611 14.7965 30.8784 14.5138C30.9958 14.2312 31.0265 13.9202 30.9667 13.6201C30.9068 13.32 30.7592 13.0444 30.5424 12.8281C30.3255 12.6117 30.0493 12.4644 29.7486 12.4047C29.4478 12.345 29.1361 12.3757 28.8528 12.4927C28.5695 12.6098 28.3274 12.8081 28.157 13.0625C27.9867 13.3169 27.8957 13.6159 27.8957 13.9219C27.8957 14.3321 28.0591 14.7256 28.3498 15.0157C28.6406 15.3058 29.0349 15.4688 29.4461 15.4688ZM11.8341 39.5691C11.5086 39.3182 11.0994 39.201 10.6902 39.2412C10.281 39.2815 9.90263 39.4762 9.63255 39.7856C7.40757 42.5366 6.19407 45.965 6.19407 49.5C6.19407 53.035 7.40757 56.4634 9.63255 59.2144C9.7814 59.3894 9.96671 59.5299 10.1756 59.626C10.3844 59.7222 10.6118 59.7718 10.8418 59.7712C11.1998 59.7626 11.5464 59.6437 11.8341 59.4309C12.1441 59.1615 12.3393 58.784 12.3797 58.3757C12.42 57.9673 12.3025 57.5591 12.0511 57.2344C10.2899 55.0395 9.33023 52.3117 9.33023 49.5C9.33023 46.6883 10.2899 43.9605 12.0511 41.7656C12.3025 41.4409 12.42 41.0327 12.3797 40.6243C12.3393 40.216 12.1441 39.8385 11.8341 39.5691ZM5.4776 37.4963C5.13205 37.2753 4.71278 37.2001 4.31172 37.287C3.91066 37.374 3.56054 37.6162 3.33811 37.9603C1.15721 41.4159 0 45.4164 0 49.5C0 53.5836 1.15721 57.5841 3.33811 61.0397C3.4575 61.2847 3.64214 61.4923 3.87184 61.6396C4.10153 61.7869 4.36743 61.8684 4.64041 61.875C4.93827 61.8798 5.23045 61.7934 5.4776 61.6275C5.82253 61.4056 6.06519 61.0562 6.15238 60.6561C6.23957 60.2559 6.16417 59.8376 5.94271 59.4928C4.08227 56.5358 3.09539 53.1152 3.09539 49.6238C3.09539 46.1324 4.08227 42.7117 5.94271 39.7547C6.07265 39.5799 6.16417 39.3798 6.21129 39.1673C6.25841 38.9549 6.26008 38.7349 6.21619 38.5217C6.17229 38.3086 6.08382 38.1071 5.95655 37.9304C5.82928 37.7537 5.66608 37.6057 5.4776 37.4963ZM29.4461 83.5312C29.1395 83.5312 28.8397 83.622 28.5848 83.7919C28.3298 83.9619 28.1311 84.2035 28.0138 84.4862C27.8964 84.7688 27.8657 85.0798 27.9255 85.3799C27.9853 85.68 28.133 85.9556 28.3498 86.1719C28.5666 86.3883 28.8429 86.5356 29.1436 86.5953C29.4444 86.655 29.7561 86.6243 30.0394 86.5072C30.3227 86.3902 30.5648 86.1919 30.7352 85.9375C30.9055 85.6831 30.9965 85.3841 30.9965 85.0781C30.9965 84.6679 30.8331 84.2744 30.5424 83.9843C30.2516 83.6942 29.8573 83.5312 29.4461 83.5312ZM46.5 34.0312C47.7265 34.0312 48.9255 33.6684 49.9453 32.9885C50.9651 32.3086 51.76 31.3422 52.2294 30.2116C52.6987 29.081 52.8215 27.8369 52.5823 26.6366C52.343 25.4364 51.7523 24.3339 50.8851 23.4685C50.0178 22.6032 48.9128 22.0139 47.7098 21.7751C46.5069 21.5364 45.26 21.6589 44.1268 22.1272C42.9937 22.5956 42.0251 23.3886 41.3437 24.4062C40.6623 25.4237 40.2986 26.62 40.2986 27.8438C40.2986 29.4848 40.9519 31.0586 42.1149 32.219C43.2779 33.3794 44.8553 34.0312 46.5 34.0312ZM46.5 24.75C47.1133 24.75 47.7128 24.9314 48.2227 25.2714C48.7326 25.6113 49.13 26.0945 49.3647 26.6598C49.5994 27.2251 49.6608 27.8472 49.5411 28.4473C49.4215 29.0474 49.1262 29.5987 48.6925 30.0314C48.2589 30.464 47.7064 30.7587 47.1049 30.8781C46.5034 30.9974 45.88 30.9362 45.3134 30.702C44.7468 30.4678 44.2626 30.0713 43.9219 29.5625C43.5811 29.0538 43.3993 28.4556 43.3993 27.8438C43.3993 27.0232 43.726 26.2363 44.3075 25.6561C44.889 25.0759 45.6776 24.75 46.5 24.75ZM46.5 40.2188C48.953 40.2188 51.351 39.493 53.3906 38.1332C55.4303 36.7734 57.02 34.8407 57.9587 32.5795C58.8975 30.3182 59.1431 27.83 58.6645 25.4295C58.186 23.029 57.0047 20.824 55.2701 19.0933C53.5356 17.3626 51.3256 16.184 48.9197 15.7065C46.5138 15.229 44.02 15.4741 41.7536 16.4107C39.4873 17.3474 37.5503 18.9335 36.1874 20.9686C34.8246 23.0036 34.0972 25.3962 34.0972 27.8438C34.0972 31.1258 35.4039 34.2734 37.7299 36.5942C40.0559 38.915 43.2106 40.2188 46.5 40.2188ZM46.5 18.5625C48.3398 18.5625 50.1383 19.1068 51.668 20.1267C53.1977 21.1465 54.39 22.596 55.094 24.292C55.7981 25.9879 55.9823 27.854 55.6234 29.6544C55.2645 31.4548 54.3785 33.1086 53.0776 34.4066C51.7767 35.7046 50.1192 36.5885 48.3148 36.9467C46.5103 37.3048 44.64 37.121 42.9402 36.4185C41.2405 35.716 39.7877 34.5264 38.7656 33.0001C37.7434 31.4738 37.1979 29.6794 37.1979 27.8438C37.1979 25.3822 38.1779 23.0215 39.9224 21.2809C41.6669 19.5403 44.0329 18.5625 46.5 18.5625ZM46.5 52.5938C44.047 52.5938 41.649 53.3195 39.6094 54.6793C37.5697 56.0391 35.98 57.9718 35.0413 60.233C34.1025 62.4943 33.8569 64.9825 34.3355 67.383C34.814 69.7835 35.9953 71.9885 37.7299 73.7192C39.4644 75.4499 41.6744 76.6285 44.0803 77.106C46.4862 77.5835 48.98 77.3384 51.2464 76.4018C53.5127 75.4651 55.4497 73.879 56.8126 71.8439C58.1754 69.8089 58.9028 67.4163 58.9028 64.9688C58.9028 61.6867 57.5961 58.5391 55.2701 56.2183C52.9441 53.8975 49.7894 52.5938 46.5 52.5938ZM46.5 74.25C44.6602 74.25 42.8617 73.7057 41.332 72.6858C39.8023 71.666 38.61 70.2165 37.906 68.5205C37.2019 66.8246 37.0177 64.9585 37.3766 63.1581C37.7355 61.3577 38.6215 59.7039 39.9224 58.4059C41.2233 57.1079 42.8808 56.224 44.6852 55.8658C46.4897 55.5077 48.36 55.6915 50.0598 56.394C51.7595 57.0965 53.2123 58.2861 54.2344 59.8124C55.2566 61.3387 55.8021 63.1331 55.8021 64.9688C55.8021 67.4303 54.8221 69.791 53.0776 71.5316C51.3331 73.2722 48.9671 74.25 46.5 74.25ZM46.5 46.4062C42.8204 46.4062 39.2235 47.4949 36.164 49.5346C33.1046 51.5743 30.72 54.4733 29.3119 57.8652C27.9038 61.257 27.5354 64.9893 28.2532 68.5901C28.9711 72.1909 30.743 75.4984 33.3448 78.0944C35.9467 80.6904 39.2616 82.4583 42.8705 83.1746C46.4794 83.8908 50.2201 83.5232 53.6195 82.1183C57.019 80.7133 59.9246 78.3341 61.9689 75.2815C64.0131 72.2289 65.1043 68.6401 65.1043 64.9688C65.1043 60.0457 63.1442 55.3242 59.6552 51.8431C56.1662 48.3619 51.4342 46.4062 46.5 46.4062ZM46.5 80.4375C43.4337 80.4375 40.4362 79.5303 37.8867 77.8306C35.3371 76.1308 33.35 73.7149 32.1766 70.8884C31.0032 68.0618 30.6961 64.9516 31.2943 61.9509C31.8926 58.9503 33.3691 56.194 35.5373 54.0307C37.7055 51.8673 40.468 50.3941 43.4754 49.7972C46.4828 49.2004 49.6 49.5067 52.433 50.6775C55.2659 51.8483 57.6872 53.831 59.3907 56.3748C61.0943 58.9186 62.0036 61.9093 62.0036 64.9688C62.0036 69.0713 60.3701 73.0059 57.4627 75.9068C54.5552 78.8078 50.6118 80.4375 46.5 80.4375ZM63.5539 12.375C63.2473 12.375 62.9475 12.4657 62.6926 12.6357C62.4376 12.8057 62.2389 13.0473 62.1216 13.3299C62.0042 13.6126 61.9735 13.9236 62.0333 14.2237C62.0932 14.5237 62.2408 14.7993 62.4576 15.0157C62.6745 15.232 62.9507 15.3793 63.2514 15.439C63.5522 15.4987 63.8639 15.4681 64.1472 15.351C64.4305 15.2339 64.6726 15.0357 64.843 14.7813C65.0133 14.5269 65.1043 14.2278 65.1043 13.9219C65.1043 13.5116 64.9409 13.1182 64.6502 12.8281C64.3594 12.538 63.9651 12.375 63.5539 12.375ZM69.7553 0H23.2447C21.1888 0 19.2171 0.814869 17.7633 2.26535C16.3096 3.71582 15.4929 5.68309 15.4929 7.73438V91.2656C15.4929 93.3169 16.3096 95.2842 17.7633 96.7347C19.2171 98.1851 21.1888 99 23.2447 99H69.7553C71.8112 99 73.7829 98.1851 75.2367 96.7347C76.6904 95.2842 77.5071 93.3169 77.5071 91.2656V7.73438C77.5071 5.68309 76.6904 3.71582 75.2367 2.26535C73.7829 0.814869 71.8112 0 69.7553 0ZM74.4064 91.2656C74.4064 92.4964 73.9164 93.6768 73.0441 94.547C72.1719 95.4173 70.9889 95.9062 69.7553 95.9062H23.2447C22.0111 95.9062 20.8281 95.4173 19.9559 94.547C19.0836 93.6768 18.5936 92.4964 18.5936 91.2656V7.73438C18.5936 6.5036 19.0836 5.32324 19.9559 4.45296C20.8281 3.58267 22.0111 3.09375 23.2447 3.09375H69.7553C70.9889 3.09375 72.1719 3.58267 73.0441 4.45296C73.9164 5.32324 74.4064 6.5036 74.4064 7.73438V91.2656ZM63.5539 83.5312C63.2473 83.5312 62.9475 83.622 62.6926 83.7919C62.4376 83.9619 62.2389 84.2035 62.1216 84.4862C62.0042 84.7688 61.9735 85.0798 62.0333 85.3799C62.0932 85.68 62.2408 85.9556 62.4576 86.1719C62.6745 86.3883 62.9507 86.5356 63.2514 86.5953C63.5522 86.655 63.8639 86.6243 64.1472 86.5072C64.4305 86.3902 64.6726 86.1919 64.843 85.9375C65.0133 85.6831 65.1043 85.3841 65.1043 85.0781C65.1043 84.6679 64.9409 84.2744 64.6502 83.9843C64.3594 83.6942 63.9651 83.5312 63.5539 83.5312ZM81.1659 39.5691C80.8559 39.8385 80.6607 40.216 80.6203 40.6243C80.58 41.0327 80.6975 41.4409 80.9489 41.7656C82.7101 43.9605 83.6698 46.6883 83.6698 49.5C83.6698 52.3117 82.7101 55.0395 80.9489 57.2344C80.6975 57.5591 80.58 57.9673 80.6203 58.3757C80.6607 58.784 80.8559 59.1615 81.1659 59.4309C81.4536 59.6437 81.8002 59.7626 82.1582 59.7712C82.3882 59.7718 82.6156 59.7222 82.8244 59.626C83.0333 59.5299 83.2186 59.3894 83.3674 59.2144C85.5924 56.4634 86.8059 53.035 86.8059 49.5C86.8059 45.965 85.5924 42.5366 83.3674 39.7856C83.0974 39.4762 82.719 39.2815 82.3098 39.2412C81.9006 39.201 81.4914 39.3182 81.1659 39.5691ZM46.5 61.875C45.8867 61.875 45.2872 62.0564 44.7773 62.3964C44.2674 62.7363 43.87 63.2195 43.6353 63.7848C43.4006 64.3501 43.3392 64.9722 43.4589 65.5723C43.5785 66.1724 43.8738 66.7237 44.3075 67.1564C44.7411 67.589 45.2936 67.8837 45.8951 68.0031C46.4966 68.1224 47.12 68.0612 47.6866 67.827C48.2532 67.5928 48.7374 67.1963 49.0782 66.6875C49.4189 66.1788 49.6007 65.5806 49.6007 64.9688C49.6007 64.1482 49.274 63.3613 48.6925 62.7811C48.111 62.2009 47.3224 61.875 46.5 61.875Z" stroke="#3D6CB4" stroke-width="2" mask="url(#path-1-inside-1)"/>
<path d="M89.6619 37.9603C89.4298 37.6389 89.0831 37.4186 88.6931 37.3447C88.3031 37.2709 87.8995 37.3491 87.5656 37.5633C87.2317 37.7775 86.9928 38.1113 86.8982 38.496C86.8037 38.8807 86.8606 39.2869 87.0573 39.6309C88.9177 42.588 89.9046 46.0086 89.9046 49.5C89.9046 52.9914 88.9177 56.412 87.0573 59.3691C86.8358 59.7138 86.7604 60.1322 86.8476 60.5323C86.9348 60.9325 87.1775 61.2818 87.5224 61.5037C87.7695 61.6697 88.0617 61.7561 88.3596 61.7512C88.6201 61.7568 88.8775 61.6939 89.106 61.5691C89.3346 61.4442 89.5262 61.2617 89.6619 61.0397C91.8428 57.5841 93 53.5836 93 49.5C93 45.4164 91.8428 41.4159 89.6619 37.9603ZM63.5539 6.1875H29.4461C27.3902 6.1875 25.4185 7.00237 23.9648 8.45285C22.511 9.90332 21.6943 11.8706 21.6943 13.9219V85.0781C21.6943 87.1294 22.511 89.0967 23.9648 90.5472C25.4185 91.9976 27.3902 92.8125 29.4461 92.8125H63.5539C64.5719 92.8125 65.5799 92.6124 66.5204 92.2238C67.4609 91.8351 68.3154 91.2654 69.0352 90.5472C69.7551 89.829 70.326 88.9763 70.7156 88.0379C71.1052 87.0996 71.3057 86.0938 71.3057 85.0781V13.9219C71.3057 12.9062 71.1052 11.9004 70.7156 10.9621C70.326 10.0237 69.7551 9.17105 69.0352 8.45285C68.3154 7.73464 67.4609 7.16493 66.5204 6.77624C65.5799 6.38756 64.5719 6.1875 63.5539 6.1875ZM68.205 85.0781C68.205 86.3089 67.715 87.4893 66.8427 88.3595C65.9705 89.2298 64.7874 89.7188 63.5539 89.7188H29.4461C28.2126 89.7188 27.0295 89.2298 26.1573 88.3595C25.285 87.4893 24.795 86.3089 24.795 85.0781V13.9219C24.795 12.6911 25.285 11.5107 26.1573 10.6405C27.0295 9.77017 28.2126 9.28125 29.4461 9.28125H63.5539C64.7874 9.28125 65.9705 9.77017 66.8427 10.6405C67.715 11.5107 68.205 12.6911 68.205 13.9219V85.0781ZM29.4461 15.4688C29.7527 15.4688 30.0525 15.378 30.3074 15.2081C30.5624 15.0381 30.7611 14.7965 30.8784 14.5138C30.9958 14.2312 31.0265 13.9202 30.9667 13.6201C30.9068 13.32 30.7592 13.0444 30.5424 12.8281C30.3255 12.6117 30.0493 12.4644 29.7486 12.4047C29.4478 12.345 29.1361 12.3757 28.8528 12.4927C28.5695 12.6098 28.3274 12.8081 28.157 13.0625C27.9867 13.3169 27.8957 13.6159 27.8957 13.9219C27.8957 14.3321 28.0591 14.7256 28.3498 15.0157C28.6406 15.3058 29.0349 15.4688 29.4461 15.4688ZM11.8341 39.5691C11.5086 39.3182 11.0994 39.201 10.6902 39.2412C10.281 39.2815 9.90263 39.4762 9.63255 39.7856C7.40757 42.5366 6.19407 45.965 6.19407 49.5C6.19407 53.035 7.40757 56.4634 9.63255 59.2144C9.7814 59.3894 9.96671 59.5299 10.1756 59.626C10.3844 59.7222 10.6118 59.7718 10.8418 59.7712C11.1998 59.7626 11.5464 59.6437 11.8341 59.4309C12.1441 59.1615 12.3393 58.784 12.3797 58.3757C12.42 57.9673 12.3025 57.5591 12.0511 57.2344C10.2899 55.0395 9.33023 52.3117 9.33023 49.5C9.33023 46.6883 10.2899 43.9605 12.0511 41.7656C12.3025 41.4409 12.42 41.0327 12.3797 40.6243C12.3393 40.216 12.1441 39.8385 11.8341 39.5691ZM5.4776 37.4963C5.13205 37.2753 4.71278 37.2001 4.31172 37.287C3.91066 37.374 3.56054 37.6162 3.33811 37.9603C1.15721 41.4159 0 45.4164 0 49.5C0 53.5836 1.15721 57.5841 3.33811 61.0397C3.4575 61.2847 3.64214 61.4923 3.87184 61.6396C4.10153 61.7869 4.36743 61.8684 4.64041 61.875C4.93827 61.8798 5.23045 61.7934 5.4776 61.6275C5.82253 61.4056 6.06519 61.0562 6.15238 60.6561C6.23957 60.2559 6.16417 59.8376 5.94271 59.4928C4.08227 56.5358 3.09539 53.1152 3.09539 49.6238C3.09539 46.1324 4.08227 42.7117 5.94271 39.7547C6.07265 39.5799 6.16417 39.3798 6.21129 39.1673C6.25841 38.9549 6.26008 38.7349 6.21619 38.5217C6.17229 38.3086 6.08382 38.1071 5.95655 37.9304C5.82928 37.7537 5.66608 37.6057 5.4776 37.4963ZM29.4461 83.5312C29.1395 83.5312 28.8397 83.622 28.5848 83.7919C28.3298 83.9619 28.1311 84.2035 28.0138 84.4862C27.8964 84.7688 27.8657 85.0798 27.9255 85.3799C27.9853 85.68 28.133 85.9556 28.3498 86.1719C28.5666 86.3883 28.8429 86.5356 29.1436 86.5953C29.4444 86.655 29.7561 86.6243 30.0394 86.5072C30.3227 86.3902 30.5648 86.1919 30.7352 85.9375C30.9055 85.6831 30.9965 85.3841 30.9965 85.0781C30.9965 84.6679 30.8331 84.2744 30.5424 83.9843C30.2516 83.6942 29.8573 83.5312 29.4461 83.5312ZM46.5 34.0312C47.7265 34.0312 48.9255 33.6684 49.9453 32.9885C50.9651 32.3086 51.76 31.3422 52.2294 30.2116C52.6987 29.081 52.8215 27.8369 52.5823 26.6366C52.343 25.4364 51.7523 24.3339 50.8851 23.4685C50.0178 22.6032 48.9128 22.0139 47.7098 21.7751C46.5069 21.5364 45.26 21.6589 44.1268 22.1272C42.9937 22.5956 42.0251 23.3886 41.3437 24.4062C40.6623 25.4237 40.2986 26.62 40.2986 27.8438C40.2986 29.4848 40.9519 31.0586 42.1149 32.219C43.2779 33.3794 44.8553 34.0312 46.5 34.0312ZM46.5 24.75C47.1133 24.75 47.7128 24.9314 48.2227 25.2714C48.7326 25.6113 49.13 26.0945 49.3647 26.6598C49.5994 27.2251 49.6608 27.8472 49.5411 28.4473C49.4215 29.0474 49.1262 29.5987 48.6925 30.0314C48.2589 30.464 47.7064 30.7587 47.1049 30.8781C46.5034 30.9974 45.88 30.9362 45.3134 30.702C44.7468 30.4678 44.2626 30.0713 43.9219 29.5625C43.5811 29.0538 43.3993 28.4556 43.3993 27.8438C43.3993 27.0232 43.726 26.2363 44.3075 25.6561C44.889 25.0759 45.6776 24.75 46.5 24.75ZM46.5 40.2188C48.953 40.2188 51.351 39.493 53.3906 38.1332C55.4303 36.7734 57.02 34.8407 57.9587 32.5795C58.8975 30.3182 59.1431 27.83 58.6645 25.4295C58.186 23.029 57.0047 20.824 55.2701 19.0933C53.5356 17.3626 51.3256 16.184 48.9197 15.7065C46.5138 15.229 44.02 15.4741 41.7536 16.4107C39.4873 17.3474 37.5503 18.9335 36.1874 20.9686C34.8246 23.0036 34.0972 25.3962 34.0972 27.8438C34.0972 31.1258 35.4039 34.2734 37.7299 36.5942C40.0559 38.915 43.2106 40.2188 46.5 40.2188ZM46.5 18.5625C48.3398 18.5625 50.1383 19.1068 51.668 20.1267C53.1977 21.1465 54.39 22.596 55.094 24.292C55.7981 25.9879 55.9823 27.854 55.6234 29.6544C55.2645 31.4548 54.3785 33.1086 53.0776 34.4066C51.7767 35.7046 50.1192 36.5885 48.3148 36.9467C46.5103 37.3048 44.64 37.121 42.9402 36.4185C41.2405 35.716 39.7877 34.5264 38.7656 33.0001C37.7434 31.4738 37.1979 29.6794 37.1979 27.8438C37.1979 25.3822 38.1779 23.0215 39.9224 21.2809C41.6669 19.5403 44.0329 18.5625 46.5 18.5625ZM46.5 52.5938C44.047 52.5938 41.649 53.3195 39.6094 54.6793C37.5697 56.0391 35.98 57.9718 35.0413 60.233C34.1025 62.4943 33.8569 64.9825 34.3355 67.383C34.814 69.7835 35.9953 71.9885 37.7299 73.7192C39.4644 75.4499 41.6744 76.6285 44.0803 77.106C46.4862 77.5835 48.98 77.3384 51.2464 76.4018C53.5127 75.4651 55.4497 73.879 56.8126 71.8439C58.1754 69.8089 58.9028 67.4163 58.9028 64.9688C58.9028 61.6867 57.5961 58.5391 55.2701 56.2183C52.9441 53.8975 49.7894 52.5938 46.5 52.5938ZM46.5 74.25C44.6602 74.25 42.8617 73.7057 41.332 72.6858C39.8023 71.666 38.61 70.2165 37.906 68.5205C37.2019 66.8246 37.0177 64.9585 37.3766 63.1581C37.7355 61.3577 38.6215 59.7039 39.9224 58.4059C41.2233 57.1079 42.8808 56.224 44.6852 55.8658C46.4897 55.5077 48.36 55.6915 50.0598 56.394C51.7595 57.0965 53.2123 58.2861 54.2344 59.8124C55.2566 61.3387 55.8021 63.1331 55.8021 64.9688C55.8021 67.4303 54.8221 69.791 53.0776 71.5316C51.3331 73.2722 48.9671 74.25 46.5 74.25ZM46.5 46.4062C42.8204 46.4062 39.2235 47.4949 36.164 49.5346C33.1046 51.5743 30.72 54.4733 29.3119 57.8652C27.9038 61.257 27.5354 64.9893 28.2532 68.5901C28.9711 72.1909 30.743 75.4984 33.3448 78.0944C35.9467 80.6904 39.2616 82.4583 42.8705 83.1746C46.4794 83.8908 50.2201 83.5232 53.6195 82.1183C57.019 80.7133 59.9246 78.3341 61.9689 75.2815C64.0131 72.2289 65.1043 68.6401 65.1043 64.9688C65.1043 60.0457 63.1442 55.3242 59.6552 51.8431C56.1662 48.3619 51.4342 46.4062 46.5 46.4062ZM46.5 80.4375C43.4337 80.4375 40.4362 79.5303 37.8867 77.8306C35.3371 76.1308 33.35 73.7149 32.1766 70.8884C31.0032 68.0618 30.6961 64.9516 31.2943 61.9509C31.8926 58.9503 33.3691 56.194 35.5373 54.0307C37.7055 51.8673 40.468 50.3941 43.4754 49.7972C46.4828 49.2004 49.6 49.5067 52.433 50.6775C55.2659 51.8483 57.6872 53.831 59.3907 56.3748C61.0943 58.9186 62.0036 61.9093 62.0036 64.9688C62.0036 69.0713 60.3701 73.0059 57.4627 75.9068C54.5552 78.8078 50.6118 80.4375 46.5 80.4375ZM63.5539 12.375C63.2473 12.375 62.9475 12.4657 62.6926 12.6357C62.4376 12.8057 62.2389 13.0473 62.1216 13.3299C62.0042 13.6126 61.9735 13.9236 62.0333 14.2237C62.0932 14.5237 62.2408 14.7993 62.4576 15.0157C62.6745 15.232 62.9507 15.3793 63.2514 15.439C63.5522 15.4987 63.8639 15.4681 64.1472 15.351C64.4305 15.2339 64.6726 15.0357 64.843 14.7813C65.0133 14.5269 65.1043 14.2278 65.1043 13.9219C65.1043 13.5116 64.9409 13.1182 64.6502 12.8281C64.3594 12.538 63.9651 12.375 63.5539 12.375ZM69.7553 0H23.2447C21.1888 0 19.2171 0.814869 17.7633 2.26535C16.3096 3.71582 15.4929 5.68309 15.4929 7.73438V91.2656C15.4929 93.3169 16.3096 95.2842 17.7633 96.7347C19.2171 98.1851 21.1888 99 23.2447 99H69.7553C71.8112 99 73.7829 98.1851 75.2367 96.7347C76.6904 95.2842 77.5071 93.3169 77.5071 91.2656V7.73438C77.5071 5.68309 76.6904 3.71582 75.2367 2.26535C73.7829 0.814869 71.8112 0 69.7553 0ZM74.4064 91.2656C74.4064 92.4964 73.9164 93.6768 73.0441 94.547C72.1719 95.4173 70.9889 95.9062 69.7553 95.9062H23.2447C22.0111 95.9062 20.8281 95.4173 19.9559 94.547C19.0836 93.6768 18.5936 92.4964 18.5936 91.2656V7.73438C18.5936 6.5036 19.0836 5.32324 19.9559 4.45296C20.8281 3.58267 22.0111 3.09375 23.2447 3.09375H69.7553C70.9889 3.09375 72.1719 3.58267 73.0441 4.45296C73.9164 5.32324 74.4064 6.5036 74.4064 7.73438V91.2656ZM63.5539 83.5312C63.2473 83.5312 62.9475 83.622 62.6926 83.7919C62.4376 83.9619 62.2389 84.2035 62.1216 84.4862C62.0042 84.7688 61.9735 85.0798 62.0333 85.3799C62.0932 85.68 62.2408 85.9556 62.4576 86.1719C62.6745 86.3883 62.9507 86.5356 63.2514 86.5953C63.5522 86.655 63.8639 86.6243 64.1472 86.5072C64.4305 86.3902 64.6726 86.1919 64.843 85.9375C65.0133 85.6831 65.1043 85.3841 65.1043 85.0781C65.1043 84.6679 64.9409 84.2744 64.6502 83.9843C64.3594 83.6942 63.9651 83.5312 63.5539 83.5312ZM81.1659 39.5691C80.8559 39.8385 80.6607 40.216 80.6203 40.6243C80.58 41.0327 80.6975 41.4409 80.9489 41.7656C82.7101 43.9605 83.6698 46.6883 83.6698 49.5C83.6698 52.3117 82.7101 55.0395 80.9489 57.2344C80.6975 57.5591 80.58 57.9673 80.6203 58.3757C80.6607 58.784 80.8559 59.1615 81.1659 59.4309C81.4536 59.6437 81.8002 59.7626 82.1582 59.7712C82.3882 59.7718 82.6156 59.7222 82.8244 59.626C83.0333 59.5299 83.2186 59.3894 83.3674 59.2144C85.5924 56.4634 86.8059 53.035 86.8059 49.5C86.8059 45.965 85.5924 42.5366 83.3674 39.7856C83.0974 39.4762 82.719 39.2815 82.3098 39.2412C81.9006 39.201 81.4914 39.3182 81.1659 39.5691ZM46.5 61.875C45.8867 61.875 45.2872 62.0564 44.7773 62.3964C44.2674 62.7363 43.87 63.2195 43.6353 63.7848C43.4006 64.3501 43.3392 64.9722 43.4589 65.5723C43.5785 66.1724 43.8738 66.7237 44.3075 67.1564C44.7411 67.589 45.2936 67.8837 45.8951 68.0031C46.4966 68.1224 47.12 68.0612 47.6866 67.827C48.2532 67.5928 48.7374 67.1963 49.0782 66.6875C49.4189 66.1788 49.6007 65.5806 49.6007 64.9688C49.6007 64.1482 49.274 63.3613 48.6925 62.7811C48.111 62.2009 47.3224 61.875 46.5 61.875Z" stroke="url(#paint0_linear)" stroke-width="2" mask="url(#path-1-inside-1)"/>
<defs>
<linearGradient id="paint0_linear" x1="46.5" y1="0" x2="46.5" y2="99" gradientUnits="userSpaceOnUse">
<stop stop-color="white"/>
<stop offset="1" stop-color="white" stop-opacity="0"/>
</linearGradient>
</defs>
</svg>
